G04*
G04 #@! TF.GenerationSoftware,Altium Limited,Altium Designer,19.1.5 (86)*
G04*
G04 Layer_Color=8421504*
%FSLAX25Y25*%
%MOIN*%
G70*
G01*
G75*
%ADD25R,0.01575X0.04724*%
%ADD26R,0.03787X0.03000*%
%ADD27R,0.03000X0.03787*%
%ADD28R,0.04000X0.03200*%
%ADD29R,0.05807X0.01772*%
%ADD30R,0.03200X0.04000*%
%ADD31R,0.04331X0.10236*%
%ADD32R,0.15000X0.15000*%
%ADD33R,0.38583X0.24410*%
%ADD34R,0.01772X0.07874*%
%ADD35R,0.02200X0.07800*%
G04:AMPARAMS|DCode=36|XSize=77.56mil|YSize=23.23mil|CornerRadius=0mil|HoleSize=0mil|Usage=FLASHONLY|Rotation=315.000|XOffset=0mil|YOffset=0mil|HoleType=Round|Shape=Rectangle|*
%AMROTATEDRECTD36*
4,1,4,-0.03563,0.01921,-0.01921,0.03563,0.03563,-0.01921,0.01921,-0.03563,-0.03563,0.01921,0.0*
%
%ADD36ROTATEDRECTD36*%

%ADD37R,0.02559X0.06004*%
%ADD38R,0.04921X0.02362*%
%ADD39R,0.06004X0.02559*%
%ADD40R,0.03543X0.05512*%
%ADD41R,0.01968X0.02362*%
%ADD42R,0.01713X0.05886*%
%ADD43R,0.09055X0.07087*%
%ADD44R,0.03543X0.03937*%
%ADD45R,0.03000X0.03000*%
%ADD46R,0.03937X0.03937*%
G04:AMPARAMS|DCode=47|XSize=39.37mil|YSize=98.43mil|CornerRadius=0mil|HoleSize=0mil|Usage=FLASHONLY|Rotation=225.000|XOffset=0mil|YOffset=0mil|HoleType=Round|Shape=Rectangle|*
%AMROTATEDRECTD47*
4,1,4,-0.02088,0.04872,0.04872,-0.02088,0.02088,-0.04872,-0.04872,0.02088,-0.02088,0.04872,0.0*
%
%ADD47ROTATEDRECTD47*%

G04:AMPARAMS|DCode=48|XSize=39.37mil|YSize=98.43mil|CornerRadius=0mil|HoleSize=0mil|Usage=FLASHONLY|Rotation=315.000|XOffset=0mil|YOffset=0mil|HoleType=Round|Shape=Rectangle|*
%AMROTATEDRECTD48*
4,1,4,-0.04872,-0.02088,0.02088,0.04872,0.04872,0.02088,-0.02088,-0.04872,-0.04872,-0.02088,0.0*
%
%ADD48ROTATEDRECTD48*%

%ADD49R,0.06496X0.01181*%
%ADD50R,0.01181X0.06496*%
%ADD51R,0.07087X0.03937*%
%ADD52R,0.10630X0.05906*%
%ADD53R,0.05000X0.06000*%
%ADD54C,0.03543*%
%ADD55R,0.03347X0.05118*%
G04:AMPARAMS|DCode=56|XSize=39.37mil|YSize=25.2mil|CornerRadius=0mil|HoleSize=0mil|Usage=FLASHONLY|Rotation=225.000|XOffset=0mil|YOffset=0mil|HoleType=Round|Shape=Rectangle|*
%AMROTATEDRECTD56*
4,1,4,0.00501,0.02283,0.02283,0.00501,-0.00501,-0.02283,-0.02283,-0.00501,0.00501,0.02283,0.0*
%
%ADD56ROTATEDRECTD56*%

%ADD57R,0.11024X0.08465*%
%ADD58R,0.02874X0.02992*%
G04:AMPARAMS|DCode=59|XSize=85.04mil|YSize=42.13mil|CornerRadius=0mil|HoleSize=0mil|Usage=FLASHONLY|Rotation=315.000|XOffset=0mil|YOffset=0mil|HoleType=Round|Shape=Rectangle|*
%AMROTATEDRECTD59*
4,1,4,-0.04496,0.01517,-0.01517,0.04496,0.04496,-0.01517,0.01517,-0.04496,-0.04496,0.01517,0.0*
%
%ADD59ROTATEDRECTD59*%

G04:AMPARAMS|DCode=60|XSize=425.2mil|YSize=409.84mil|CornerRadius=0mil|HoleSize=0mil|Usage=FLASHONLY|Rotation=45.000|XOffset=0mil|YOffset=0mil|HoleType=Round|Shape=Rectangle|*
%AMROTATEDRECTD60*
4,1,4,-0.00543,-0.29523,-0.29523,-0.00543,0.00543,0.29523,0.29523,0.00543,-0.00543,-0.29523,0.0*
%
%ADD60ROTATEDRECTD60*%

%ADD61R,0.10236X0.04331*%
%ADD62R,0.12402X0.08858*%
%ADD63R,0.09449X0.06299*%
%ADD64R,0.01772X0.02953*%
%ADD65R,0.01378X0.02953*%
%ADD66R,0.06693X0.04331*%
%ADD67R,0.05000X0.04000*%
%ADD68R,0.04331X0.06693*%
%ADD69R,0.08858X0.12402*%
%ADD70R,0.02756X0.03543*%
%ADD71R,0.04331X0.04724*%
%ADD72R,0.03937X0.03543*%
%ADD73R,0.03543X0.02756*%
%ADD74R,0.10236X0.04724*%
%ADD75R,0.02362X0.01968*%
%ADD76R,0.02323X0.07756*%
%ADD77R,0.09055X0.08465*%
%ADD78O,0.03347X0.07480*%
G36*
X84125Y294000D02*
Y292000D01*
X81125D01*
X83125Y294000D01*
X81125Y296000D01*
X84125D01*
Y294000D01*
D02*
G37*
G36*
X82125D02*
X80125Y292000D01*
X79125D01*
Y296000D01*
X80125D01*
X82125Y294000D01*
D02*
G37*
G36*
X84000Y308500D02*
Y306500D01*
X81000D01*
X83000Y308500D01*
X81000Y310500D01*
X84000D01*
Y308500D01*
D02*
G37*
G36*
X82000D02*
X80000Y306500D01*
X79000D01*
Y310500D01*
X80000D01*
X82000Y308500D01*
D02*
G37*
G36*
X113000Y261875D02*
X111000Y259875D01*
X109000Y261875D01*
Y262875D01*
X113000D01*
Y261875D01*
D02*
G37*
G36*
Y257875D02*
X109000D01*
Y260875D01*
X111000Y258875D01*
X113000Y260875D01*
Y257875D01*
D02*
G37*
G36*
X173500Y261875D02*
X171500Y259875D01*
X169500Y261875D01*
Y262875D01*
X173500D01*
Y261875D01*
D02*
G37*
G36*
Y257875D02*
X169500D01*
Y260875D01*
X171500Y258875D01*
X173500Y260875D01*
Y257875D01*
D02*
G37*
G36*
X84125Y316500D02*
Y314500D01*
X81125D01*
X83125Y316500D01*
X81125Y318500D01*
X84125D01*
Y316500D01*
D02*
G37*
G36*
X82125D02*
X80125Y314500D01*
X79125D01*
Y318500D01*
X80125D01*
X82125Y316500D01*
D02*
G37*
G36*
X84125Y355000D02*
Y353000D01*
X81125D01*
X83125Y355000D01*
X81125Y357000D01*
X84125D01*
Y355000D01*
D02*
G37*
G36*
X82125D02*
X80125Y353000D01*
X79125D01*
Y357000D01*
X80125D01*
X82125Y355000D01*
D02*
G37*
G36*
X119000Y384125D02*
X117000Y386125D01*
X115000Y384125D01*
Y387125D01*
X119000D01*
Y384125D01*
D02*
G37*
G36*
Y383125D02*
Y382125D01*
X115000D01*
Y383125D01*
X117000Y385125D01*
X119000Y383125D01*
D02*
G37*
G36*
X126500Y384125D02*
X124500Y386125D01*
X122500Y384125D01*
Y387125D01*
X126500D01*
Y384125D01*
D02*
G37*
G36*
Y383125D02*
Y382125D01*
X122500D01*
Y383125D01*
X124500Y385125D01*
X126500Y383125D01*
D02*
G37*
G36*
X487625Y387500D02*
Y385500D01*
X484625D01*
X486625Y387500D01*
X484625Y389500D01*
X487625D01*
Y387500D01*
D02*
G37*
G36*
X485625D02*
X483625Y385500D01*
X482625D01*
Y389500D01*
X483625D01*
X485625Y387500D01*
D02*
G37*
G36*
X487625Y370000D02*
Y368000D01*
X484625D01*
X486625Y370000D01*
X484625Y372000D01*
X487625D01*
Y370000D01*
D02*
G37*
G36*
X485625D02*
X483625Y368000D01*
X482625D01*
Y372000D01*
X483625D01*
X485625Y370000D01*
D02*
G37*
G36*
X340900Y354525D02*
X338900Y356525D01*
X336900Y354525D01*
Y357525D01*
X340900D01*
Y354525D01*
D02*
G37*
G36*
X332700Y356275D02*
X330700Y354275D01*
X328700Y356275D01*
Y357275D01*
X332700D01*
Y356275D01*
D02*
G37*
G36*
Y352275D02*
X328700D01*
Y355275D01*
X330700Y353275D01*
X332700Y355275D01*
Y352275D01*
D02*
G37*
G36*
X340900Y353525D02*
Y352525D01*
X336900D01*
Y353525D01*
X338900Y355525D01*
X340900Y353525D01*
D02*
G37*
G36*
X279996Y349579D02*
X278996D01*
X276996Y351579D01*
X278996Y353579D01*
X279996D01*
Y349579D01*
D02*
G37*
G36*
X275996Y351579D02*
X277996Y349579D01*
X274996D01*
Y351579D01*
Y353579D01*
X277996D01*
X275996Y351579D01*
D02*
G37*
G36*
X208125Y349000D02*
Y347000D01*
X205125D01*
X207125Y349000D01*
X205125Y351000D01*
X208125D01*
Y349000D01*
D02*
G37*
G36*
X206125D02*
X204125Y347000D01*
X203125D01*
Y351000D01*
X204125D01*
X206125Y349000D01*
D02*
G37*
G36*
X208125Y341000D02*
Y339000D01*
X205125D01*
X207125Y341000D01*
X205125Y343000D01*
X208125D01*
Y341000D01*
D02*
G37*
G36*
X206125D02*
X204125Y339000D01*
X203125D01*
Y343000D01*
X204125D01*
X206125Y341000D01*
D02*
G37*
G36*
X333375Y334800D02*
X332375D01*
X330375Y336800D01*
X332375Y338800D01*
X333375D01*
Y334800D01*
D02*
G37*
G36*
X329375Y336800D02*
X331375Y334800D01*
X328375D01*
Y336800D01*
Y338800D01*
X331375D01*
X329375Y336800D01*
D02*
G37*
D25*
X42859Y329240D02*
D03*
X40300D02*
D03*
X37741D02*
D03*
Y321760D02*
D03*
X42859D02*
D03*
X458059Y349760D02*
D03*
X452941D02*
D03*
Y357240D02*
D03*
X455500D02*
D03*
X458059D02*
D03*
X436059D02*
D03*
X433500D02*
D03*
X430941D02*
D03*
Y349760D02*
D03*
X436059D02*
D03*
D26*
X298238Y366700D02*
D03*
X302962D02*
D03*
D27*
X286000Y364362D02*
D03*
Y359638D02*
D03*
X373000Y297862D02*
D03*
Y293138D02*
D03*
D28*
X338900Y351525D02*
D03*
Y358275D02*
D03*
X330700D02*
D03*
Y351525D02*
D03*
X124500Y387875D02*
D03*
Y381125D02*
D03*
X117000Y387875D02*
D03*
Y381125D02*
D03*
X171500Y257125D02*
D03*
Y263875D02*
D03*
X111000Y257125D02*
D03*
Y263875D02*
D03*
D29*
X298233Y348961D02*
D03*
Y351520D02*
D03*
Y354080D02*
D03*
Y356639D02*
D03*
X321367D02*
D03*
Y354080D02*
D03*
Y351520D02*
D03*
Y348961D02*
D03*
D30*
X280996Y351579D02*
D03*
X274246D02*
D03*
X334375Y336800D02*
D03*
X327625D02*
D03*
X488375Y370000D02*
D03*
X481625D02*
D03*
X488375Y387500D02*
D03*
X481625D02*
D03*
X208875Y341000D02*
D03*
X202125D02*
D03*
X208875Y349000D02*
D03*
X202125D02*
D03*
X84875Y294000D02*
D03*
X78125D02*
D03*
X84750Y308500D02*
D03*
X78000D02*
D03*
X84875Y316500D02*
D03*
X78125D02*
D03*
X84875Y355000D02*
D03*
X78125D02*
D03*
D31*
X310685Y336800D02*
D03*
X321315D02*
D03*
X287585D02*
D03*
X298215D02*
D03*
X584585Y76000D02*
D03*
X595215D02*
D03*
X49435Y80417D02*
D03*
X60065D02*
D03*
X78435Y106417D02*
D03*
X89065D02*
D03*
D32*
X266234Y182933D02*
D03*
X319234D02*
D03*
D33*
X292734D02*
D03*
D34*
X314486Y156949D02*
D03*
X311927D02*
D03*
X309368D02*
D03*
X306809D02*
D03*
X304250D02*
D03*
X301691D02*
D03*
X299132D02*
D03*
X296573D02*
D03*
X294014D02*
D03*
X291455D02*
D03*
X288896D02*
D03*
X286337D02*
D03*
X283778D02*
D03*
X281219D02*
D03*
X278660D02*
D03*
X276100D02*
D03*
X273541D02*
D03*
X270982D02*
D03*
Y208917D02*
D03*
X273541D02*
D03*
X276100D02*
D03*
X278660D02*
D03*
X281219D02*
D03*
X283778D02*
D03*
X286337D02*
D03*
X288896D02*
D03*
X291455D02*
D03*
X294014D02*
D03*
X296573D02*
D03*
X299132D02*
D03*
X301691D02*
D03*
X304250D02*
D03*
X306809D02*
D03*
X309368D02*
D03*
X311927D02*
D03*
X314486D02*
D03*
D35*
X62250Y96717D02*
D03*
X57250D02*
D03*
X52250D02*
D03*
X47250D02*
D03*
Y116117D02*
D03*
X52250D02*
D03*
X57250D02*
D03*
X62250D02*
D03*
X17250Y96717D02*
D03*
X22250D02*
D03*
X27250D02*
D03*
X32250D02*
D03*
Y116117D02*
D03*
X27250D02*
D03*
X22250D02*
D03*
X17250D02*
D03*
D36*
X567234Y264682D02*
D03*
X563699Y261146D02*
D03*
X560163Y257611D02*
D03*
X556628Y254075D02*
D03*
X553092Y250540D02*
D03*
X549557Y247004D02*
D03*
X546021Y243469D02*
D03*
X542486Y239933D02*
D03*
X556266Y226153D02*
D03*
X559801Y229688D02*
D03*
X563337Y233224D02*
D03*
X566872Y236759D02*
D03*
X570408Y240295D02*
D03*
X573943Y243830D02*
D03*
X577479Y247366D02*
D03*
X581014Y250902D02*
D03*
D37*
X32250Y131240D02*
D03*
X27250D02*
D03*
X22250D02*
D03*
X17250D02*
D03*
Y152594D02*
D03*
X22250D02*
D03*
X27250D02*
D03*
X32250D02*
D03*
X610500Y97823D02*
D03*
X615500D02*
D03*
X620500D02*
D03*
X625500D02*
D03*
Y119177D02*
D03*
X620500D02*
D03*
X615500D02*
D03*
X610500D02*
D03*
X62250Y153094D02*
D03*
X57250D02*
D03*
X52250D02*
D03*
X47250D02*
D03*
Y131740D02*
D03*
X52250D02*
D03*
X57250D02*
D03*
X62250D02*
D03*
D38*
X664187Y233917D02*
D03*
X656313Y230177D02*
D03*
Y237657D02*
D03*
D39*
X614573Y257917D02*
D03*
Y252917D02*
D03*
Y247917D02*
D03*
Y242917D02*
D03*
X635927D02*
D03*
Y247917D02*
D03*
Y252917D02*
D03*
Y257917D02*
D03*
D40*
X586490Y307417D02*
D03*
X579010D02*
D03*
Y318917D02*
D03*
X586490D02*
D03*
X579010Y330417D02*
D03*
X586490D02*
D03*
X579010Y341917D02*
D03*
X586490D02*
D03*
X579010Y353417D02*
D03*
X586490D02*
D03*
X579010Y364917D02*
D03*
X586490D02*
D03*
X579010Y376417D02*
D03*
X586490D02*
D03*
X579010Y387917D02*
D03*
X586490D02*
D03*
X527990Y330417D02*
D03*
X520510D02*
D03*
X527990Y318917D02*
D03*
X520510D02*
D03*
X527990Y307417D02*
D03*
X520510D02*
D03*
X643010Y387917D02*
D03*
X650490D02*
D03*
X643010Y376417D02*
D03*
X650490D02*
D03*
X643010Y364917D02*
D03*
X650490D02*
D03*
X643010Y353417D02*
D03*
X650490D02*
D03*
X643010Y341917D02*
D03*
X650490D02*
D03*
X643010Y330417D02*
D03*
X650490D02*
D03*
X643010Y307417D02*
D03*
X650490D02*
D03*
X643010Y318917D02*
D03*
X650490D02*
D03*
X555510Y307417D02*
D03*
X562990D02*
D03*
X555510Y318917D02*
D03*
X562990D02*
D03*
X555510Y330417D02*
D03*
X562990D02*
D03*
X555510Y341917D02*
D03*
X562990D02*
D03*
X555510Y353417D02*
D03*
X562990D02*
D03*
X555510Y364917D02*
D03*
X562990D02*
D03*
X555510Y376417D02*
D03*
X562990D02*
D03*
X555510Y387917D02*
D03*
X562990D02*
D03*
D41*
X488750Y208949D02*
D03*
Y212886D02*
D03*
X459250D02*
D03*
Y208949D02*
D03*
X451750Y212886D02*
D03*
Y208949D02*
D03*
X444250Y212886D02*
D03*
Y208949D02*
D03*
X436750Y212886D02*
D03*
Y208949D02*
D03*
X481250Y212886D02*
D03*
Y208949D02*
D03*
X474250Y212886D02*
D03*
Y208949D02*
D03*
X466250Y212886D02*
D03*
Y208949D02*
D03*
X334750Y237449D02*
D03*
Y241386D02*
D03*
X328750D02*
D03*
Y237449D02*
D03*
X322750Y241386D02*
D03*
Y237449D02*
D03*
X316750Y241386D02*
D03*
Y237449D02*
D03*
X310750Y241386D02*
D03*
Y237449D02*
D03*
X304250Y241386D02*
D03*
Y237449D02*
D03*
X298250Y241386D02*
D03*
Y237449D02*
D03*
X292250Y241386D02*
D03*
Y237449D02*
D03*
X286250Y241386D02*
D03*
Y237449D02*
D03*
X280250Y241386D02*
D03*
Y237449D02*
D03*
X274250Y241386D02*
D03*
Y237449D02*
D03*
X268250Y241386D02*
D03*
Y237449D02*
D03*
X262250Y241386D02*
D03*
Y237449D02*
D03*
X379250Y213386D02*
D03*
Y209449D02*
D03*
X373750Y213386D02*
D03*
Y209449D02*
D03*
X368250Y213386D02*
D03*
Y209449D02*
D03*
X362750Y213386D02*
D03*
Y209449D02*
D03*
X357250Y213386D02*
D03*
Y209449D02*
D03*
X351750Y213386D02*
D03*
Y209449D02*
D03*
X346250Y213386D02*
D03*
Y209449D02*
D03*
X340750Y213386D02*
D03*
Y209449D02*
D03*
D42*
X450998Y172280D02*
D03*
X453502D02*
D03*
X455998D02*
D03*
X458502D02*
D03*
X460998D02*
D03*
X463502D02*
D03*
X465998D02*
D03*
X468502D02*
D03*
X470998D02*
D03*
X473502D02*
D03*
Y193555D02*
D03*
X470998D02*
D03*
X468502D02*
D03*
X465998D02*
D03*
X463502D02*
D03*
X460998D02*
D03*
X458502D02*
D03*
X455998D02*
D03*
X453502D02*
D03*
X450998D02*
D03*
X346998Y193571D02*
D03*
X349502D02*
D03*
X351998D02*
D03*
X354502D02*
D03*
X356998D02*
D03*
X359502D02*
D03*
X361998D02*
D03*
X364502D02*
D03*
X366998D02*
D03*
X369502D02*
D03*
Y172295D02*
D03*
X366998D02*
D03*
X364502D02*
D03*
X361998D02*
D03*
X359502D02*
D03*
X356998D02*
D03*
X354502D02*
D03*
X351998D02*
D03*
X349502D02*
D03*
X346998D02*
D03*
D43*
X10072Y272858D02*
D03*
X44128D02*
D03*
Y255142D02*
D03*
X10072D02*
D03*
D44*
X65850Y285500D02*
D03*
X72150D02*
D03*
X500441Y387500D02*
D03*
X506740D02*
D03*
X500441Y370000D02*
D03*
X506740D02*
D03*
X208650Y355000D02*
D03*
X202350D02*
D03*
X208650Y331358D02*
D03*
X202350D02*
D03*
X208650Y309705D02*
D03*
X202350D02*
D03*
X51725Y308500D02*
D03*
X58025D02*
D03*
X51725Y316500D02*
D03*
X58025D02*
D03*
X78350Y325500D02*
D03*
X84650D02*
D03*
X78350Y337000D02*
D03*
X84650D02*
D03*
X78350Y343000D02*
D03*
X84650D02*
D03*
X78350Y349000D02*
D03*
X84650D02*
D03*
X54350Y335000D02*
D03*
X60650D02*
D03*
X54350Y345000D02*
D03*
X60650D02*
D03*
D45*
X65750Y294000D02*
D03*
X71250D02*
D03*
D46*
X521698Y369784D02*
D03*
X528391D02*
D03*
X521698Y387557D02*
D03*
X528391D02*
D03*
Y352000D02*
D03*
X521698D02*
D03*
D47*
X100350Y279350D02*
D03*
X186650Y365650D02*
D03*
D48*
Y279350D02*
D03*
X100350Y365650D02*
D03*
D49*
X101669Y356949D02*
D03*
Y354980D02*
D03*
Y353012D02*
D03*
Y351043D02*
D03*
Y349075D02*
D03*
Y347106D02*
D03*
Y345138D02*
D03*
Y343169D02*
D03*
Y341201D02*
D03*
Y339232D02*
D03*
Y337264D02*
D03*
Y335295D02*
D03*
Y333327D02*
D03*
Y331358D02*
D03*
Y329390D02*
D03*
Y327421D02*
D03*
Y325453D02*
D03*
Y323484D02*
D03*
Y321516D02*
D03*
Y319547D02*
D03*
Y317579D02*
D03*
Y315610D02*
D03*
Y313642D02*
D03*
Y311673D02*
D03*
Y309705D02*
D03*
Y307736D02*
D03*
Y305768D02*
D03*
Y303799D02*
D03*
Y301831D02*
D03*
Y299862D02*
D03*
Y297894D02*
D03*
Y295925D02*
D03*
Y293957D02*
D03*
Y291988D02*
D03*
Y290020D02*
D03*
Y288051D02*
D03*
X185331D02*
D03*
Y290020D02*
D03*
Y291988D02*
D03*
Y293957D02*
D03*
Y295925D02*
D03*
Y297894D02*
D03*
Y299862D02*
D03*
Y301831D02*
D03*
Y303799D02*
D03*
Y305768D02*
D03*
Y307736D02*
D03*
Y309705D02*
D03*
Y311673D02*
D03*
Y313642D02*
D03*
Y315610D02*
D03*
Y317579D02*
D03*
Y319547D02*
D03*
Y321516D02*
D03*
Y323484D02*
D03*
Y325453D02*
D03*
Y327421D02*
D03*
Y329390D02*
D03*
Y331358D02*
D03*
Y333327D02*
D03*
Y335295D02*
D03*
Y337264D02*
D03*
Y339232D02*
D03*
Y341201D02*
D03*
Y343169D02*
D03*
Y345138D02*
D03*
Y347106D02*
D03*
Y349075D02*
D03*
Y351043D02*
D03*
Y353012D02*
D03*
Y354980D02*
D03*
Y356949D02*
D03*
D50*
X109051Y280669D02*
D03*
X111020D02*
D03*
X112988D02*
D03*
X114957D02*
D03*
X116925D02*
D03*
X118894D02*
D03*
X120862D02*
D03*
X122831D02*
D03*
X124799D02*
D03*
X126768D02*
D03*
X128736D02*
D03*
X130705D02*
D03*
X132673D02*
D03*
X134642D02*
D03*
X136610D02*
D03*
X138579D02*
D03*
X140547D02*
D03*
X142516D02*
D03*
X144484D02*
D03*
X146453D02*
D03*
X148421D02*
D03*
X150390D02*
D03*
X152358D02*
D03*
X154327D02*
D03*
X156295D02*
D03*
X158264D02*
D03*
X160232D02*
D03*
X162201D02*
D03*
X164169D02*
D03*
X166138D02*
D03*
X168106D02*
D03*
X170075D02*
D03*
X172043D02*
D03*
X174012D02*
D03*
X175980D02*
D03*
X177949D02*
D03*
Y364331D02*
D03*
X175980D02*
D03*
X174012D02*
D03*
X172043D02*
D03*
X170075D02*
D03*
X168106D02*
D03*
X166138D02*
D03*
X164169D02*
D03*
X162201D02*
D03*
X160232D02*
D03*
X158264D02*
D03*
X156295D02*
D03*
X154327D02*
D03*
X152358D02*
D03*
X150390D02*
D03*
X148421D02*
D03*
X146453D02*
D03*
X144484D02*
D03*
X142516D02*
D03*
X140547D02*
D03*
X138579D02*
D03*
X136610D02*
D03*
X134642D02*
D03*
X132673D02*
D03*
X130705D02*
D03*
X128736D02*
D03*
X126768D02*
D03*
X124799D02*
D03*
X122831D02*
D03*
X120862D02*
D03*
X118894D02*
D03*
X116925D02*
D03*
X114957D02*
D03*
X112988D02*
D03*
X111020D02*
D03*
X109051D02*
D03*
D51*
X69000Y335079D02*
D03*
Y344921D02*
D03*
D52*
X67875Y316240D02*
D03*
Y308760D02*
D03*
D53*
X349500Y268500D02*
D03*
X360500D02*
D03*
X353500Y293000D02*
D03*
X342500D02*
D03*
D54*
X458000Y392500D02*
D03*
X453000D02*
D03*
X448000D02*
D03*
X443000D02*
D03*
X438000D02*
D03*
Y387500D02*
D03*
X443000D02*
D03*
X448000D02*
D03*
X453000D02*
D03*
X458000D02*
D03*
D55*
X600555Y86000D02*
D03*
X607445D02*
D03*
D56*
X632449Y76551D02*
D03*
X628551Y80449D02*
D03*
D57*
X615700Y54835D02*
D03*
Y74165D02*
D03*
D58*
X611709Y86000D02*
D03*
X625291D02*
D03*
D59*
X586302Y140302D02*
D03*
X591035Y145035D02*
D03*
X595767Y149767D02*
D03*
X600500Y154500D02*
D03*
X605233Y159233D02*
D03*
D60*
X572594Y172941D02*
D03*
D61*
X637000Y119215D02*
D03*
Y108585D02*
D03*
X617600Y138285D02*
D03*
Y148915D02*
D03*
X678500Y229415D02*
D03*
Y218785D02*
D03*
X549250Y149732D02*
D03*
Y139102D02*
D03*
X535250Y149732D02*
D03*
Y139102D02*
D03*
X521250Y149732D02*
D03*
Y139102D02*
D03*
X507250Y149732D02*
D03*
Y139102D02*
D03*
X493250Y149732D02*
D03*
Y139102D02*
D03*
X479250Y149732D02*
D03*
Y139102D02*
D03*
X465250Y149732D02*
D03*
Y139102D02*
D03*
X451250Y149732D02*
D03*
Y139102D02*
D03*
X229250Y88232D02*
D03*
Y77602D02*
D03*
X130750Y88232D02*
D03*
Y77602D02*
D03*
X245550Y102102D02*
D03*
Y112732D02*
D03*
X229900Y102102D02*
D03*
Y112732D02*
D03*
X214250Y102102D02*
D03*
Y112732D02*
D03*
X116250Y101602D02*
D03*
Y112232D02*
D03*
X130750Y101602D02*
D03*
Y112232D02*
D03*
X145250Y101602D02*
D03*
Y112232D02*
D03*
X316250Y112732D02*
D03*
Y102102D02*
D03*
X297750Y112732D02*
D03*
Y102102D02*
D03*
X279250Y112732D02*
D03*
Y102102D02*
D03*
X260750Y112732D02*
D03*
Y102102D02*
D03*
X437250Y149732D02*
D03*
Y139102D02*
D03*
X423250Y149732D02*
D03*
Y139102D02*
D03*
X409250Y149732D02*
D03*
Y139102D02*
D03*
X395250Y149732D02*
D03*
Y139102D02*
D03*
X381250Y149732D02*
D03*
Y139102D02*
D03*
X367250Y149732D02*
D03*
Y139102D02*
D03*
X353250Y149732D02*
D03*
Y139102D02*
D03*
X339250Y149732D02*
D03*
Y139102D02*
D03*
D62*
X583700Y114614D02*
D03*
Y91386D02*
D03*
X456750Y124500D02*
D03*
Y97335D02*
D03*
X485250D02*
D03*
Y124500D02*
D03*
X513750Y97335D02*
D03*
Y124500D02*
D03*
X542250Y97335D02*
D03*
Y124500D02*
D03*
X371250D02*
D03*
Y97335D02*
D03*
X342750D02*
D03*
Y124500D02*
D03*
X399750Y97335D02*
D03*
Y124500D02*
D03*
X428250Y97252D02*
D03*
Y124417D02*
D03*
D63*
X162793Y60000D02*
D03*
X160120Y101195D02*
D03*
X187521D02*
D03*
X194500Y60000D02*
D03*
X178647D02*
D03*
X146940D02*
D03*
D64*
X159053Y65905D02*
D03*
X162793D02*
D03*
X166534D02*
D03*
Y54094D02*
D03*
X162793D02*
D03*
X159053D02*
D03*
X190760D02*
D03*
X194500D02*
D03*
X198240D02*
D03*
Y65905D02*
D03*
X194500D02*
D03*
X190760D02*
D03*
X174907Y54094D02*
D03*
X178647D02*
D03*
X182387D02*
D03*
Y65905D02*
D03*
X178647D02*
D03*
X174907D02*
D03*
X143200Y54094D02*
D03*
X146940D02*
D03*
X150680D02*
D03*
Y65905D02*
D03*
X146940D02*
D03*
X143200D02*
D03*
D65*
X163959Y95289D02*
D03*
X161400D02*
D03*
X158841D02*
D03*
X156282D02*
D03*
Y107100D02*
D03*
X158841D02*
D03*
X161400D02*
D03*
X163959D02*
D03*
X191359D02*
D03*
X188800D02*
D03*
X186241D02*
D03*
X183682D02*
D03*
Y95289D02*
D03*
X186241D02*
D03*
X188800D02*
D03*
X191359D02*
D03*
D66*
X171100Y96485D02*
D03*
Y107115D02*
D03*
X198700D02*
D03*
Y96485D02*
D03*
X8250Y116102D02*
D03*
Y126732D02*
D03*
X57250Y207102D02*
D03*
Y217732D02*
D03*
X237750Y144232D02*
D03*
Y133602D02*
D03*
X192250Y144732D02*
D03*
Y134102D02*
D03*
X146250Y144732D02*
D03*
Y134102D02*
D03*
X101250Y144732D02*
D03*
Y134102D02*
D03*
D67*
X267428Y60600D02*
D03*
Y52600D02*
D03*
X257586Y60600D02*
D03*
Y52600D02*
D03*
X247743Y60600D02*
D03*
Y52600D02*
D03*
X237900Y60600D02*
D03*
Y52600D02*
D03*
X306800D02*
D03*
Y60600D02*
D03*
X296957Y52600D02*
D03*
Y60600D02*
D03*
X287114Y52600D02*
D03*
Y60600D02*
D03*
X277271Y52600D02*
D03*
Y60600D02*
D03*
D68*
X196915Y86200D02*
D03*
X186285D02*
D03*
X169615D02*
D03*
X158985D02*
D03*
X196815Y116100D02*
D03*
X186185D02*
D03*
X169515D02*
D03*
X158885D02*
D03*
X646815Y269000D02*
D03*
X636185D02*
D03*
X583065Y212417D02*
D03*
X572435D02*
D03*
X557935Y279917D02*
D03*
X568565D02*
D03*
D69*
X640583Y214500D02*
D03*
X613417D02*
D03*
D70*
X398953Y372500D02*
D03*
X393047D02*
D03*
X398953Y366500D02*
D03*
X393047D02*
D03*
X398953Y360500D02*
D03*
X393047D02*
D03*
X398953Y355000D02*
D03*
X393047D02*
D03*
X398953Y348000D02*
D03*
X393047D02*
D03*
X398953Y342500D02*
D03*
X393047D02*
D03*
X523703Y244417D02*
D03*
X517797D02*
D03*
X190797Y221917D02*
D03*
X196703D02*
D03*
X145797D02*
D03*
X151703D02*
D03*
X236797D02*
D03*
X242703D02*
D03*
X99797D02*
D03*
X105703D02*
D03*
X38203Y209417D02*
D03*
X32297D02*
D03*
D71*
X506347Y352000D02*
D03*
X499653D02*
D03*
X402347Y269500D02*
D03*
X395654D02*
D03*
D72*
X111000Y387650D02*
D03*
Y381350D02*
D03*
X134642Y387650D02*
D03*
Y381350D02*
D03*
X154327Y387650D02*
D03*
Y381350D02*
D03*
X165000Y257350D02*
D03*
Y263650D02*
D03*
X158264Y257350D02*
D03*
Y263650D02*
D03*
X138579Y257350D02*
D03*
Y263650D02*
D03*
X130705D02*
D03*
Y257350D02*
D03*
X117000D02*
D03*
Y263650D02*
D03*
D73*
X508250Y250370D02*
D03*
Y244465D02*
D03*
X8750Y102870D02*
D03*
Y96965D02*
D03*
X216750Y146465D02*
D03*
Y152370D02*
D03*
X216750Y139870D02*
D03*
Y133965D02*
D03*
X171250Y146965D02*
D03*
Y152870D02*
D03*
X171250Y139870D02*
D03*
Y133965D02*
D03*
X125250Y146965D02*
D03*
Y152870D02*
D03*
X125250Y139870D02*
D03*
Y133965D02*
D03*
X80250D02*
D03*
Y139870D02*
D03*
X80250Y152870D02*
D03*
Y146965D02*
D03*
D74*
X544250Y60256D02*
D03*
Y77579D02*
D03*
X530250Y60256D02*
D03*
Y77579D02*
D03*
X516250Y60256D02*
D03*
Y77579D02*
D03*
X502750Y60256D02*
D03*
Y77579D02*
D03*
X489250Y60256D02*
D03*
Y77579D02*
D03*
X475750Y60256D02*
D03*
Y77579D02*
D03*
X462250Y60256D02*
D03*
Y77579D02*
D03*
X448750Y60256D02*
D03*
Y77579D02*
D03*
X378750Y60256D02*
D03*
Y77579D02*
D03*
X434750Y60256D02*
D03*
Y77579D02*
D03*
X420750Y60256D02*
D03*
Y77579D02*
D03*
X406750Y60256D02*
D03*
Y77579D02*
D03*
X392750Y60256D02*
D03*
Y77579D02*
D03*
X364750Y60256D02*
D03*
Y77579D02*
D03*
X350750Y60256D02*
D03*
Y77579D02*
D03*
X336750Y60256D02*
D03*
Y77579D02*
D03*
D75*
X510781Y330417D02*
D03*
X514718D02*
D03*
X510781Y318917D02*
D03*
X514718D02*
D03*
X510781Y307417D02*
D03*
X514718D02*
D03*
D76*
X57250Y173189D02*
D03*
X52250D02*
D03*
X47250D02*
D03*
X42250D02*
D03*
X37250D02*
D03*
X32250D02*
D03*
X27250D02*
D03*
X22250D02*
D03*
Y192677D02*
D03*
X27250D02*
D03*
X32250D02*
D03*
X37250D02*
D03*
X42250D02*
D03*
X47250D02*
D03*
X52250D02*
D03*
X57250D02*
D03*
D77*
X90589Y54417D02*
D03*
X107911D02*
D03*
X69911Y59417D02*
D03*
X52589D02*
D03*
X14839Y58500D02*
D03*
X32161D02*
D03*
X32411Y80417D02*
D03*
X15089D02*
D03*
X74285D02*
D03*
X91215D02*
D03*
D78*
X246750Y199453D02*
D03*
X236750D02*
D03*
X226750D02*
D03*
X216750D02*
D03*
X246750Y166382D02*
D03*
X236750D02*
D03*
X226750D02*
D03*
X216750D02*
D03*
X125750D02*
D03*
X135750D02*
D03*
X145750D02*
D03*
X155750D02*
D03*
X125750Y199453D02*
D03*
X135750D02*
D03*
X145750D02*
D03*
X155750D02*
D03*
X80250Y166398D02*
D03*
X90250D02*
D03*
X100250D02*
D03*
X110250D02*
D03*
X80250Y199469D02*
D03*
X90250D02*
D03*
X100250D02*
D03*
X110250D02*
D03*
X201250Y199453D02*
D03*
X191250D02*
D03*
X181250D02*
D03*
X171250D02*
D03*
X201250Y166382D02*
D03*
X191250D02*
D03*
X181250D02*
D03*
X171250D02*
D03*
M02*
