G04*
G04 #@! TF.GenerationSoftware,Altium Limited,Altium Designer,19.1.5 (86)*
G04*
G04 Layer_Color=16711935*
%FSLAX25Y25*%
%MOIN*%
G70*
G01*
G75*
%ADD80R,0.04587X0.03800*%
%ADD81R,0.03800X0.04587*%
%ADD82R,0.04800X0.04000*%
%ADD84R,0.04000X0.04800*%
%ADD85R,0.05131X0.11036*%
%ADD95R,0.02769X0.03162*%
%ADD98R,0.04343X0.04737*%
%ADD114R,0.11036X0.05131*%
%ADD115R,0.13202X0.09658*%
%ADD116R,0.10249X0.07099*%
%ADD117R,0.02572X0.03753*%
%ADD119R,0.07493X0.05131*%
%ADD121R,0.05131X0.07493*%
%ADD123R,0.03556X0.04343*%
%ADD124R,0.05131X0.05524*%
%ADD125R,0.04737X0.04343*%
%ADD126R,0.04343X0.03556*%
%ADD127R,0.11036X0.05524*%
%ADD129R,0.03123X0.08556*%
%ADD130R,0.09855X0.09265*%
%ADD131O,0.04147X0.08280*%
%ADD132R,0.08772X0.08772*%
%ADD133C,0.08772*%
%ADD134C,0.06509*%
%ADD135C,0.05524*%
%ADD136C,0.05820*%
%ADD137R,0.05820X0.05820*%
%ADD138C,0.06237*%
%ADD139C,0.06800*%
%ADD140C,0.07887*%
%ADD141R,0.07887X0.07887*%
%ADD142C,0.06706*%
%ADD143C,0.02953*%
%ADD144C,0.03150*%
%ADD145C,0.10642*%
%ADD146C,0.00394*%
%ADD147C,0.14973*%
%ADD148C,0.20800*%
%ADD149C,0.02400*%
%ADD150C,0.02800*%
%ADD151C,0.03800*%
%ADD216R,0.04737X0.14580*%
%ADD217R,0.06706X0.14186*%
G04:AMPARAMS|DCode=218|XSize=145.8mil|YSize=47.37mil|CornerRadius=0mil|HoleSize=0mil|Usage=FLASHONLY|Rotation=315.000|XOffset=0mil|YOffset=0mil|HoleType=Round|Shape=Rectangle|*
%AMROTATEDRECTD218*
4,1,4,-0.06829,0.03480,-0.03480,0.06829,0.06829,-0.03480,0.03480,-0.06829,-0.06829,0.03480,0.0*
%
%ADD218ROTATEDRECTD218*%

G04:AMPARAMS|DCode=219|XSize=141.86mil|YSize=67.06mil|CornerRadius=0mil|HoleSize=0mil|Usage=FLASHONLY|Rotation=315.000|XOffset=0mil|YOffset=0mil|HoleType=Round|Shape=Rectangle|*
%AMROTATEDRECTD219*
4,1,4,-0.07386,0.02645,-0.02645,0.07386,0.07386,-0.02645,0.02645,-0.07386,-0.07386,0.02645,0.0*
%
%ADD219ROTATEDRECTD219*%

%ADD220O,0.01902X0.03517*%
%ADD221R,0.03162X0.18910*%
%ADD222R,0.06902X0.09461*%
%ADD223R,0.08477X0.04343*%
%ADD224R,0.08477X0.13398*%
%ADD225R,0.08556X0.03044*%
%ADD226R,0.02572X0.02769*%
%ADD227R,0.08674X0.05524*%
%ADD228R,0.03556X0.04737*%
%ADD229R,0.05800X0.06800*%
%ADD230R,0.08071X0.05906*%
%ADD231R,0.06299X0.14173*%
%ADD232R,0.05906X0.14173*%
%ADD233R,0.06693X0.14173*%
%ADD234R,0.05118X0.12598*%
%ADD235R,0.03543X0.06693*%
%ADD236R,0.10642X0.16154*%
%ADD237R,0.03950X0.18910*%
%ADD238O,0.03517X0.01902*%
%ADD239R,0.10642X0.10642*%
%ADD240R,0.09461X0.07887*%
%ADD241R,0.09265X0.17729*%
%ADD242R,0.08674X0.14580*%
%ADD243R,0.05524X0.05131*%
%ADD244R,0.06800X0.05800*%
G04:AMPARAMS|DCode=245|XSize=110.36mil|YSize=51.31mil|CornerRadius=0mil|HoleSize=0mil|Usage=FLASHONLY|Rotation=225.000|XOffset=0mil|YOffset=0mil|HoleType=Round|Shape=Rectangle|*
%AMROTATEDRECTD245*
4,1,4,0.02088,0.05716,0.05716,0.02088,-0.02088,-0.05716,-0.05716,-0.02088,0.02088,0.05716,0.0*
%
%ADD245ROTATEDRECTD245*%

G36*
X84125Y300000D02*
Y297600D01*
X80325D01*
X82725Y300000D01*
X80325Y302400D01*
X84125D01*
Y300000D01*
D02*
G37*
G36*
X82525D02*
X80125Y297600D01*
X79125D01*
Y302400D01*
X80125D01*
X82525Y300000D01*
D02*
G37*
G36*
X84125Y292500D02*
Y290100D01*
X80325D01*
X82725Y292500D01*
X80325Y294900D01*
X84125D01*
Y292500D01*
D02*
G37*
G36*
X82525D02*
X80125Y290100D01*
X79125D01*
Y294900D01*
X80125D01*
X82525Y292500D01*
D02*
G37*
G36*
X70625D02*
Y290100D01*
X66825D01*
X69225Y292500D01*
X66825Y294900D01*
X70625D01*
Y292500D01*
D02*
G37*
G36*
X69025D02*
X66625Y290100D01*
X65625D01*
Y294900D01*
X66625D01*
X69025Y292500D01*
D02*
G37*
G36*
X133400Y259325D02*
X131000Y261725D01*
X128600Y259325D01*
Y263125D01*
X133400D01*
Y259325D01*
D02*
G37*
G36*
Y259125D02*
Y258125D01*
X128600D01*
Y259125D01*
X131000Y261525D01*
X133400Y259125D01*
D02*
G37*
G36*
X315600Y358775D02*
X313200Y356375D01*
X310800Y358775D01*
Y359775D01*
X315600D01*
Y358775D01*
D02*
G37*
G36*
X324267Y356225D02*
X321867Y358625D01*
X319467Y356225D01*
Y360025D01*
X324267D01*
Y356225D01*
D02*
G37*
G36*
X315600Y354775D02*
X310800D01*
Y358575D01*
X313200Y356175D01*
X315600Y358575D01*
Y354775D01*
D02*
G37*
G36*
X324267Y356025D02*
Y355025D01*
X319467D01*
Y356025D01*
X321867Y358425D01*
X324267Y356025D01*
D02*
G37*
G36*
X383587Y281425D02*
X372248Y281425D01*
X372248Y284555D01*
X383587D01*
Y281425D01*
D02*
G37*
G36*
X386957Y269850D02*
X383827D01*
X383827Y281189D01*
X386957Y281189D01*
Y269850D01*
D02*
G37*
G36*
X372016Y269850D02*
X368886Y269850D01*
Y281189D01*
X372016D01*
X372016Y269850D01*
D02*
G37*
G36*
X383591Y266484D02*
X372252D01*
Y269614D01*
X383591Y269614D01*
X383591Y266484D01*
D02*
G37*
G36*
X141400Y259325D02*
X139000Y261725D01*
X136600Y259325D01*
Y263125D01*
X141400D01*
Y259325D01*
D02*
G37*
G36*
Y259125D02*
Y258125D01*
X136600D01*
Y259125D01*
X139000Y261525D01*
X141400Y259125D01*
D02*
G37*
D80*
X360362Y271000D02*
D03*
X355638D02*
D03*
X360362Y266000D02*
D03*
X355638D02*
D03*
X399862Y279500D02*
D03*
X395138D02*
D03*
X399862Y269500D02*
D03*
X395138D02*
D03*
X395138Y264500D02*
D03*
X399862D02*
D03*
X395138Y259500D02*
D03*
X399862D02*
D03*
D81*
X366500Y293138D02*
D03*
X373500D02*
D03*
X383500Y297862D02*
D03*
X391000D02*
D03*
X401000D02*
D03*
Y293138D02*
D03*
X286000Y379362D02*
D03*
Y374638D02*
D03*
Y359638D02*
D03*
Y364362D02*
D03*
X396000Y293138D02*
D03*
Y297862D02*
D03*
X391000Y293138D02*
D03*
X383500D02*
D03*
X378500D02*
D03*
Y297862D02*
D03*
X373500Y297862D02*
D03*
X366500D02*
D03*
X360000Y293138D02*
D03*
Y297862D02*
D03*
X355000Y293138D02*
D03*
Y297862D02*
D03*
X348000Y293138D02*
D03*
Y297862D02*
D03*
X385500Y258362D02*
D03*
Y253638D02*
D03*
X380500Y258362D02*
D03*
Y253638D02*
D03*
X375000Y253638D02*
D03*
Y258362D02*
D03*
X370000Y258362D02*
D03*
Y253638D02*
D03*
X365000Y258362D02*
D03*
Y253638D02*
D03*
X360000Y258362D02*
D03*
Y253638D02*
D03*
X234500Y324138D02*
D03*
Y328862D02*
D03*
X247500D02*
D03*
Y324138D02*
D03*
X269500Y328862D02*
D03*
Y324138D02*
D03*
X262500Y328862D02*
D03*
Y324138D02*
D03*
X241000Y328862D02*
D03*
Y324138D02*
D03*
D82*
X313200Y360775D02*
D03*
Y354025D02*
D03*
X321867D02*
D03*
Y360775D02*
D03*
X131000Y257125D02*
D03*
Y263875D02*
D03*
X139000Y257125D02*
D03*
Y263875D02*
D03*
D84*
X64625Y292500D02*
D03*
X71375D02*
D03*
X78125D02*
D03*
X84875D02*
D03*
X78125Y300000D02*
D03*
X84875D02*
D03*
D85*
X561185Y55500D02*
D03*
X571815D02*
D03*
X329565Y224417D02*
D03*
X318935D02*
D03*
D95*
X316750Y237449D02*
D03*
Y241386D02*
D03*
X322750Y237449D02*
D03*
Y241386D02*
D03*
X310750Y228480D02*
D03*
Y232417D02*
D03*
X304250Y228449D02*
D03*
Y232386D02*
D03*
X298250Y228480D02*
D03*
Y232417D02*
D03*
X292250Y228715D02*
D03*
Y232652D02*
D03*
X286250Y228449D02*
D03*
Y232386D02*
D03*
X280250D02*
D03*
Y228449D02*
D03*
X274250Y232417D02*
D03*
Y228480D02*
D03*
X268250Y232386D02*
D03*
Y228449D02*
D03*
X310750Y241886D02*
D03*
Y237949D02*
D03*
X304250Y241886D02*
D03*
Y237949D02*
D03*
X292250Y241886D02*
D03*
Y237949D02*
D03*
X286250Y241886D02*
D03*
Y237949D02*
D03*
X280250Y241886D02*
D03*
Y237949D02*
D03*
X274250Y241886D02*
D03*
Y237949D02*
D03*
X268250Y241886D02*
D03*
Y237949D02*
D03*
X298250Y241886D02*
D03*
Y237949D02*
D03*
X328750Y241886D02*
D03*
Y237949D02*
D03*
D98*
X123850Y309000D02*
D03*
X130150D02*
D03*
X71350Y286000D02*
D03*
X77650D02*
D03*
D114*
X255250Y228232D02*
D03*
Y217602D02*
D03*
X260750Y102102D02*
D03*
Y112732D02*
D03*
X279250Y102102D02*
D03*
Y112732D02*
D03*
X297750Y102102D02*
D03*
Y112732D02*
D03*
X316250Y102102D02*
D03*
Y112732D02*
D03*
D115*
X456750Y97335D02*
D03*
Y124500D02*
D03*
X485250D02*
D03*
Y97335D02*
D03*
X513750Y124500D02*
D03*
Y97335D02*
D03*
X542250Y124500D02*
D03*
Y97335D02*
D03*
X428250Y124500D02*
D03*
Y97335D02*
D03*
X399750Y124500D02*
D03*
Y97335D02*
D03*
X371250Y124500D02*
D03*
Y97335D02*
D03*
X342750Y124500D02*
D03*
Y97335D02*
D03*
D116*
X160490Y60071D02*
D03*
X176447D02*
D03*
X192403D02*
D03*
X208360D02*
D03*
D117*
X164230Y65976D02*
D03*
X160490D02*
D03*
X156750D02*
D03*
Y54165D02*
D03*
X160490D02*
D03*
X164230D02*
D03*
X180187Y65976D02*
D03*
X176447D02*
D03*
X172706D02*
D03*
Y54165D02*
D03*
X176447D02*
D03*
X180187D02*
D03*
X196143Y65976D02*
D03*
X192403D02*
D03*
X188663D02*
D03*
Y54165D02*
D03*
X192403D02*
D03*
X196143D02*
D03*
X212100Y65976D02*
D03*
X208360D02*
D03*
X204620D02*
D03*
Y54165D02*
D03*
X208360D02*
D03*
X212100D02*
D03*
D119*
X587990Y247732D02*
D03*
Y237102D02*
D03*
X8250Y116102D02*
D03*
Y126732D02*
D03*
X597750Y237102D02*
D03*
Y247732D02*
D03*
X124250Y147232D02*
D03*
Y136602D02*
D03*
X17750Y159732D02*
D03*
Y149102D02*
D03*
X45750Y140232D02*
D03*
Y129602D02*
D03*
X35250Y140232D02*
D03*
Y129602D02*
D03*
X215750Y136602D02*
D03*
Y147232D02*
D03*
X170250Y136602D02*
D03*
Y147232D02*
D03*
X79250Y137102D02*
D03*
Y147732D02*
D03*
D121*
X385485Y199400D02*
D03*
X396115D02*
D03*
X384085Y173200D02*
D03*
X394715D02*
D03*
D123*
X35047Y334900D02*
D03*
X40953D02*
D03*
X35047Y316900D02*
D03*
X40953D02*
D03*
X56653Y321800D02*
D03*
X50747D02*
D03*
X56653Y329300D02*
D03*
X50747D02*
D03*
X90203Y153917D02*
D03*
X84297D02*
D03*
X35297Y161965D02*
D03*
X41203D02*
D03*
X33203Y209417D02*
D03*
X27297D02*
D03*
X86203Y221917D02*
D03*
X80297D02*
D03*
X132203D02*
D03*
X126297D02*
D03*
X177203D02*
D03*
X171297D02*
D03*
X223203D02*
D03*
X217297D02*
D03*
X226703Y153917D02*
D03*
X220797D02*
D03*
X236797Y153917D02*
D03*
X242703D02*
D03*
X191297D02*
D03*
X197203D02*
D03*
X181203Y153917D02*
D03*
X175297D02*
D03*
X135703D02*
D03*
X129797D02*
D03*
X145797Y153917D02*
D03*
X151703D02*
D03*
X106203D02*
D03*
X100297D02*
D03*
D124*
X353654Y284500D02*
D03*
X360347D02*
D03*
X395447Y286000D02*
D03*
X402140D02*
D03*
X432846Y267500D02*
D03*
X426154D02*
D03*
Y282500D02*
D03*
X432846D02*
D03*
D125*
X121000Y387650D02*
D03*
Y381350D02*
D03*
X110500D02*
D03*
Y387650D02*
D03*
D126*
X24750Y128965D02*
D03*
Y134870D02*
D03*
X56750Y117465D02*
D03*
Y123370D02*
D03*
X60250Y140370D02*
D03*
Y134465D02*
D03*
X17250Y128965D02*
D03*
Y134870D02*
D03*
D127*
X544250Y60256D02*
D03*
Y77579D02*
D03*
X530250D02*
D03*
Y60256D02*
D03*
X516250Y77579D02*
D03*
Y60256D02*
D03*
X502750Y77579D02*
D03*
Y60256D02*
D03*
X489250Y77579D02*
D03*
Y60256D02*
D03*
X475750Y77579D02*
D03*
Y60256D02*
D03*
X448750Y77579D02*
D03*
Y60256D02*
D03*
X462250Y77579D02*
D03*
Y60256D02*
D03*
X434750Y77579D02*
D03*
Y60256D02*
D03*
X420750Y77579D02*
D03*
Y60256D02*
D03*
X406750Y77579D02*
D03*
Y60256D02*
D03*
X392750Y77579D02*
D03*
Y60256D02*
D03*
X364750Y77579D02*
D03*
Y60256D02*
D03*
X378750Y77579D02*
D03*
Y60256D02*
D03*
X350750Y77579D02*
D03*
Y60256D02*
D03*
X336750Y77579D02*
D03*
Y60256D02*
D03*
D129*
X401900Y173156D02*
D03*
X406900D02*
D03*
X411900D02*
D03*
X416900D02*
D03*
X421900D02*
D03*
X426900D02*
D03*
X431900D02*
D03*
X436900D02*
D03*
Y192644D02*
D03*
X431900D02*
D03*
X426900D02*
D03*
X421900D02*
D03*
X416900D02*
D03*
X411900D02*
D03*
X406900D02*
D03*
X401900D02*
D03*
D130*
X91215Y80417D02*
D03*
X74285D02*
D03*
X90589Y54417D02*
D03*
X107911D02*
D03*
X52589Y59417D02*
D03*
X69911D02*
D03*
X32161Y58500D02*
D03*
X14839D02*
D03*
X15089Y80417D02*
D03*
X32411D02*
D03*
D131*
X246750Y166382D02*
D03*
X236750D02*
D03*
X226750D02*
D03*
X216750D02*
D03*
X246750Y199453D02*
D03*
X236750D02*
D03*
X226750D02*
D03*
X216750D02*
D03*
X155750Y166382D02*
D03*
X145750D02*
D03*
X135750D02*
D03*
X125750D02*
D03*
X155750Y199453D02*
D03*
X145750D02*
D03*
X135750D02*
D03*
X125750D02*
D03*
X110250Y166398D02*
D03*
X100250D02*
D03*
X90250D02*
D03*
X80250D02*
D03*
X110250Y199469D02*
D03*
X100250D02*
D03*
X90250D02*
D03*
X80250D02*
D03*
X201250Y166382D02*
D03*
X191250D02*
D03*
X181250D02*
D03*
X171250D02*
D03*
X201250Y199453D02*
D03*
X191250D02*
D03*
X181250D02*
D03*
X171250D02*
D03*
D132*
X88428Y36400D02*
D03*
D133*
X78585D02*
D03*
X68743D02*
D03*
X58900D02*
D03*
D134*
X27350Y361680D02*
D03*
Y296720D02*
D03*
X8650Y361680D02*
D03*
Y296720D02*
D03*
D135*
X18000Y352822D02*
D03*
Y344948D02*
D03*
Y337074D02*
D03*
Y329200D02*
D03*
Y321326D02*
D03*
Y313452D02*
D03*
Y305578D02*
D03*
D136*
X593815Y194500D02*
D03*
D137*
X613500D02*
D03*
D138*
X650500Y167630D02*
D03*
Y207000D02*
D03*
X678500D02*
D03*
Y167630D02*
D03*
D139*
X454250Y36417D02*
D03*
X464092D02*
D03*
X473935D02*
D03*
X483778D02*
D03*
X493620D02*
D03*
X503463D02*
D03*
X513305D02*
D03*
X523148D02*
D03*
X265750Y182917D02*
D03*
X318750D02*
D03*
X307750Y174417D02*
D03*
X300250D02*
D03*
X292250D02*
D03*
X285250D02*
D03*
X277250D02*
D03*
X307250Y182917D02*
D03*
X299750D02*
D03*
X292250D02*
D03*
X284750D02*
D03*
X277250D02*
D03*
X307250Y191417D02*
D03*
X299750D02*
D03*
X292250D02*
D03*
X284750D02*
D03*
X277250D02*
D03*
X212120Y36417D02*
D03*
X202278D02*
D03*
X192435D02*
D03*
X182592D02*
D03*
X172750D02*
D03*
X162908D02*
D03*
X153065D02*
D03*
X143222D02*
D03*
X428420D02*
D03*
X418578D02*
D03*
X408735D02*
D03*
X398892D02*
D03*
X389050D02*
D03*
X379207D02*
D03*
X369365D02*
D03*
X359522D02*
D03*
X306905D02*
D03*
X297063D02*
D03*
X287220D02*
D03*
X277378D02*
D03*
X267535D02*
D03*
X257693D02*
D03*
X247850D02*
D03*
X238007D02*
D03*
X332250Y183917D02*
D03*
D140*
X551315Y36500D02*
D03*
X561158D02*
D03*
X643280Y36630D02*
D03*
X629500D02*
D03*
D141*
X571000Y36500D02*
D03*
X615721Y36630D02*
D03*
D142*
X174996Y322500D02*
D03*
X112003Y322501D02*
D03*
D143*
X230752Y368417D02*
D03*
D144*
X260476D02*
D03*
D145*
X349000Y392000D02*
D03*
X399000D02*
D03*
D146*
X463000Y390000D02*
D03*
X433000Y386004D02*
D03*
Y393996D02*
D03*
D147*
X660209Y33087D02*
D03*
X598791D02*
D03*
D148*
X684750Y393917D02*
D03*
X14250Y22417D02*
D03*
Y228917D02*
D03*
X304750Y393417D02*
D03*
X684748Y22417D02*
D03*
X14250Y393417D02*
D03*
X334000Y22417D02*
D03*
D149*
X623900Y399100D02*
D03*
X71300Y71300D02*
D03*
X104900Y62800D02*
D03*
X102500Y65200D02*
D03*
X89100Y68700D02*
D03*
X91215Y70815D02*
D03*
X25100Y71800D02*
D03*
X38800Y69500D02*
D03*
X43700Y80400D02*
D03*
X40600D02*
D03*
X74200Y88500D02*
D03*
X35900Y69500D02*
D03*
X71300Y68000D02*
D03*
X79250Y47400D02*
D03*
X101900Y72200D02*
D03*
Y75100D02*
D03*
X76300Y47400D02*
D03*
X54694Y50506D02*
D03*
X15089Y71011D02*
D03*
X15100Y73900D02*
D03*
X14839Y48961D02*
D03*
X14800Y52000D02*
D03*
X52589Y52611D02*
D03*
X377003Y286300D02*
D03*
X374903D02*
D03*
X386200Y302100D02*
D03*
X388300D02*
D03*
D150*
X76300Y90600D02*
D03*
X22250Y89917D02*
D03*
X25100Y68900D02*
D03*
X65800Y70700D02*
D03*
X121750Y74917D02*
D03*
X125250Y71417D02*
D03*
X68000Y132200D02*
D03*
X20400Y69400D02*
D03*
X42200Y74600D02*
D03*
X175600Y128100D02*
D03*
X623900Y392600D02*
D03*
X671200Y91700D02*
D03*
Y131600D02*
D03*
Y99700D02*
D03*
Y107700D02*
D03*
Y115600D02*
D03*
Y123400D02*
D03*
X248400Y77100D02*
D03*
X257100Y81500D02*
D03*
X301800Y69300D02*
D03*
X292200Y66900D02*
D03*
X245400Y73800D02*
D03*
X256500Y68200D02*
D03*
X264400Y68800D02*
D03*
X276600Y80700D02*
D03*
X301800Y89600D02*
D03*
X322400Y133300D02*
D03*
X327200Y147700D02*
D03*
X267900Y148200D02*
D03*
X650200Y129500D02*
D03*
X629100Y54100D02*
D03*
X598400Y59300D02*
D03*
X592200Y59500D02*
D03*
X683600Y245300D02*
D03*
Y253900D02*
D03*
X676700Y343300D02*
D03*
Y352100D02*
D03*
X676500Y360400D02*
D03*
X544700Y396800D02*
D03*
X539600D02*
D03*
X496200Y320300D02*
D03*
X486900Y277900D02*
D03*
X496700Y237200D02*
D03*
X335800Y222900D02*
D03*
X335900Y218500D02*
D03*
X254100Y249300D02*
D03*
X10400Y202400D02*
D03*
X338900Y309200D02*
D03*
X324600D02*
D03*
X322100Y56300D02*
D03*
X322000Y62000D02*
D03*
X417700Y255500D02*
D03*
X422800Y208700D02*
D03*
X496700Y242400D02*
D03*
X135900Y236000D02*
D03*
X113200Y231600D02*
D03*
X67400Y326900D02*
D03*
X43800Y296000D02*
D03*
X421500Y399400D02*
D03*
Y378800D02*
D03*
X428200Y333500D02*
D03*
X421500D02*
D03*
X481500Y354400D02*
D03*
X475000D02*
D03*
X463400Y316100D02*
D03*
X456300Y316000D02*
D03*
X415900Y299700D02*
D03*
X217700Y124100D02*
D03*
X200000Y123500D02*
D03*
X151300Y119000D02*
D03*
X380800Y288600D02*
D03*
X411900Y214600D02*
D03*
X389300Y288800D02*
D03*
X378500Y301500D02*
D03*
X361000Y372500D02*
D03*
X331900Y305200D02*
D03*
X324400Y285800D02*
D03*
X538000Y161347D02*
D03*
X533453Y161347D02*
D03*
X50500Y386900D02*
D03*
X488850Y172900D02*
D03*
X483500D02*
D03*
X494200D02*
D03*
X388200Y157100D02*
D03*
X335800Y166200D02*
D03*
X333200Y163800D02*
D03*
X256750Y146417D02*
D03*
X231750Y159917D02*
D03*
X346250Y155417D02*
D03*
X535750Y204417D02*
D03*
X362250Y162417D02*
D03*
X240884Y159800D02*
D03*
X643600Y280200D02*
D03*
X640700Y283100D02*
D03*
X637800Y286000D02*
D03*
X276900Y336000D02*
D03*
X253500Y306000D02*
D03*
X216400Y273000D02*
D03*
X140500Y288500D02*
D03*
X290800Y370200D02*
D03*
X247200Y306000D02*
D03*
X205800Y270500D02*
D03*
X242600Y306000D02*
D03*
X298300Y372100D02*
D03*
X387700Y348000D02*
D03*
X130700Y372700D02*
D03*
X132500Y332500D02*
D03*
X130000Y335000D02*
D03*
X135000Y330000D02*
D03*
X131700Y296400D02*
D03*
X348900Y330500D02*
D03*
X387900Y342500D02*
D03*
X221600Y305800D02*
D03*
X387700Y355100D02*
D03*
X177900Y370600D02*
D03*
X387500Y360600D02*
D03*
X192900Y349500D02*
D03*
X192988Y353012D02*
D03*
X140000Y297500D02*
D03*
X406900Y214500D02*
D03*
X149500Y261500D02*
D03*
Y272000D02*
D03*
X149400Y265300D02*
D03*
X35000Y329200D02*
D03*
X176700Y347100D02*
D03*
X175900Y337600D02*
D03*
X174800Y355600D02*
D03*
X46100Y316900D02*
D03*
X111400Y345900D02*
D03*
X62100Y323100D02*
D03*
X111300Y349500D02*
D03*
X35000Y321800D02*
D03*
X29300Y332800D02*
D03*
X29400Y318600D02*
D03*
X45600Y321800D02*
D03*
Y329300D02*
D03*
X313200Y364500D02*
D03*
X330700Y362000D02*
D03*
X338100Y336800D02*
D03*
X298200Y345300D02*
D03*
X326300Y354100D02*
D03*
X574000Y128500D02*
D03*
X570500D02*
D03*
X574000Y132700D02*
D03*
X570500D02*
D03*
X606094Y148915D02*
D03*
X610000Y148900D02*
D03*
X595400Y140700D02*
D03*
X597900Y138200D02*
D03*
X602300Y122900D02*
D03*
X598700D02*
D03*
X602200Y126500D02*
D03*
X598600Y126400D02*
D03*
X595000D02*
D03*
X202566Y113848D02*
D03*
X174700Y111900D02*
D03*
X412000Y161000D02*
D03*
X408100Y160900D02*
D03*
X193100Y91600D02*
D03*
X203316Y159942D02*
D03*
X178600Y117400D02*
D03*
X318800Y78400D02*
D03*
X241250Y69917D02*
D03*
X185500Y69600D02*
D03*
X179700Y76000D02*
D03*
X199400Y69700D02*
D03*
X193500Y70600D02*
D03*
X197700Y78800D02*
D03*
X193148D02*
D03*
X188000D02*
D03*
X240100Y91400D02*
D03*
X204100Y75400D02*
D03*
X190300Y72800D02*
D03*
X206400Y118500D02*
D03*
X184300Y77200D02*
D03*
X174907Y74900D02*
D03*
X162100Y78300D02*
D03*
X131900Y95300D02*
D03*
X167800Y75200D02*
D03*
X232800Y69600D02*
D03*
X133750Y12917D02*
D03*
X153000Y48500D02*
D03*
X143250Y72878D02*
D03*
X171250Y18917D02*
D03*
Y11417D02*
D03*
X636000Y261500D02*
D03*
X530750Y199417D02*
D03*
X458000Y398500D02*
D03*
X409500Y372500D02*
D03*
X458000Y376500D02*
D03*
X453000Y367000D02*
D03*
X409500Y365500D02*
D03*
X434500D02*
D03*
X431500Y362500D02*
D03*
X434500Y379500D02*
D03*
X426000Y352000D02*
D03*
X453000Y398500D02*
D03*
X426000Y359500D02*
D03*
X455500Y363500D02*
D03*
X443000Y398500D02*
D03*
X475000Y370000D02*
D03*
X126000Y375000D02*
D03*
X43500Y202500D02*
D03*
X108494Y291994D02*
D03*
X115500Y295500D02*
D03*
X128500Y300000D02*
D03*
X138500Y301000D02*
D03*
X116500Y302500D02*
D03*
X164500Y337000D02*
D03*
Y342000D02*
D03*
X132500Y342500D02*
D03*
X142500D02*
D03*
X137500D02*
D03*
X93500Y329500D02*
D03*
X158000Y371500D02*
D03*
X145200Y288600D02*
D03*
X141500Y252500D02*
D03*
X100250Y208417D02*
D03*
X145750D02*
D03*
X191250D02*
D03*
X236750D02*
D03*
X111500Y158500D02*
D03*
X157000D02*
D03*
X248000D02*
D03*
X375000Y272500D02*
D03*
X381000D02*
D03*
Y278500D02*
D03*
X375000D02*
D03*
X377921Y275520D02*
D03*
X510781Y313167D02*
D03*
X510781Y324667D02*
D03*
X483000Y301000D02*
D03*
X475500Y284500D02*
D03*
X456000Y301000D02*
D03*
X193841Y331358D02*
D03*
X286000Y355500D02*
D03*
X231000Y324500D02*
D03*
X249500Y340500D02*
D03*
X212000Y348000D02*
D03*
X124500Y392000D02*
D03*
X255000Y232500D02*
D03*
X80500Y249500D02*
D03*
X126750Y249359D02*
D03*
X171500Y249500D02*
D03*
X217000Y248500D02*
D03*
X60500Y294000D02*
D03*
X62000Y285500D02*
D03*
X74500Y298500D02*
D03*
X89500Y325500D02*
D03*
X74500Y355000D02*
D03*
X111000Y374500D02*
D03*
X134642Y376500D02*
D03*
X154327D02*
D03*
X137500Y327500D02*
D03*
X195051Y356949D02*
D03*
X390500Y269500D02*
D03*
X201500Y315500D02*
D03*
X115500Y268000D02*
D03*
X138500Y273000D02*
D03*
X158264D02*
D03*
X178500Y286000D02*
D03*
X176000Y289000D02*
D03*
X170500Y294500D02*
D03*
X127500Y291000D02*
D03*
X355500Y262500D02*
D03*
X351750Y253417D02*
D03*
X404000Y258500D02*
D03*
X117000Y291500D02*
D03*
X122000Y294500D02*
D03*
X365000Y264500D02*
D03*
X118500Y306000D02*
D03*
X113000Y304500D02*
D03*
X366500Y269500D02*
D03*
X349500Y284500D02*
D03*
X357250Y247917D02*
D03*
X360000Y250000D02*
D03*
X404000Y264500D02*
D03*
X366000Y272500D02*
D03*
X112000Y313000D02*
D03*
X138500Y351000D02*
D03*
X144500D02*
D03*
X158000Y348000D02*
D03*
X157000Y351000D02*
D03*
X365500Y302000D02*
D03*
X348000Y302500D02*
D03*
X391500Y276500D02*
D03*
X360000Y302000D02*
D03*
X366500Y283000D02*
D03*
X389500D02*
D03*
X401000Y302000D02*
D03*
X389500Y278500D02*
D03*
X124500Y292000D02*
D03*
X236000Y273500D02*
D03*
X381500Y249500D02*
D03*
X385500D02*
D03*
X377000D02*
D03*
X362500Y247000D02*
D03*
X552000Y258500D02*
D03*
X508250Y253917D02*
D03*
X379000Y264500D02*
D03*
X376000Y303000D02*
D03*
X253882Y351000D02*
D03*
X266874D02*
D03*
X245220D02*
D03*
X240890D02*
D03*
X236559D02*
D03*
X96000Y297500D02*
D03*
X83000Y286000D02*
D03*
X153500Y351000D02*
D03*
X559500Y265500D02*
D03*
X290000Y374500D02*
D03*
X262500Y333500D02*
D03*
X120884Y374915D02*
D03*
X90000Y298500D02*
D03*
X126000Y258000D02*
D03*
X164000Y268500D02*
D03*
X32500Y215500D02*
D03*
X140000Y325000D02*
D03*
X132500Y301000D02*
D03*
X51000Y201000D02*
D03*
X130000Y289000D02*
D03*
X139250Y245417D02*
D03*
X71779Y240417D02*
D03*
X93500Y317000D02*
D03*
X328750Y248000D02*
D03*
X147000Y317500D02*
D03*
X149500Y315000D02*
D03*
X144500Y320000D02*
D03*
X142000Y322500D02*
D03*
X119000Y315500D02*
D03*
X310500Y271500D02*
D03*
X314750Y216417D02*
D03*
X304000Y271500D02*
D03*
X298000D02*
D03*
X119000Y321029D02*
D03*
X292000Y271500D02*
D03*
X286000D02*
D03*
X96500Y353000D02*
D03*
X280000Y271500D02*
D03*
X274000D02*
D03*
X93500Y321500D02*
D03*
X268000Y271500D02*
D03*
X262000D02*
D03*
X379500Y206000D02*
D03*
X93000Y349500D02*
D03*
X115000Y353500D02*
D03*
X374000Y206000D02*
D03*
X93000Y353000D02*
D03*
X368500Y206000D02*
D03*
X109000Y357000D02*
D03*
X363000Y206000D02*
D03*
X107000Y355000D02*
D03*
X357500Y206000D02*
D03*
X352000D02*
D03*
X113000Y357000D02*
D03*
X346500Y206000D02*
D03*
X341000D02*
D03*
X157750Y251917D02*
D03*
X100000Y82500D02*
D03*
Y87000D02*
D03*
Y91500D02*
D03*
X32250Y166917D02*
D03*
Y157917D02*
D03*
X36500Y152500D02*
D03*
X14000Y116117D02*
D03*
X8751Y106500D02*
D03*
X29500Y140500D02*
D03*
X25500Y138500D02*
D03*
X37000Y146000D02*
D03*
X56000Y140370D02*
D03*
X52000Y137000D02*
D03*
X38500Y94500D02*
D03*
X15366Y125198D02*
D03*
X7500Y111500D02*
D03*
X22250Y122917D02*
D03*
X66500Y143000D02*
D03*
X264500Y388500D02*
D03*
X255000D02*
D03*
X246000D02*
D03*
X236000D02*
D03*
X226500D02*
D03*
X208500D02*
D03*
X199500D02*
D03*
X190500D02*
D03*
X99500D02*
D03*
X90000D02*
D03*
X81000D02*
D03*
X72000D02*
D03*
X63000D02*
D03*
X44500D02*
D03*
X35500D02*
D03*
X99000Y31000D02*
D03*
Y25000D02*
D03*
X110000Y31000D02*
D03*
Y25000D02*
D03*
X121000Y31000D02*
D03*
Y25000D02*
D03*
X33000Y11000D02*
D03*
X44000D02*
D03*
X55000D02*
D03*
X66000D02*
D03*
X77000D02*
D03*
X88000D02*
D03*
X99000D02*
D03*
X110000D02*
D03*
X121000D02*
D03*
X33000Y19000D02*
D03*
X44000D02*
D03*
X55000D02*
D03*
X66000D02*
D03*
X77000D02*
D03*
X88000D02*
D03*
X99000D02*
D03*
X110000D02*
D03*
X121000D02*
D03*
X544750Y132917D02*
D03*
X530750D02*
D03*
X516250D02*
D03*
X500250D02*
D03*
X609250Y247917D02*
D03*
X444250Y160417D02*
D03*
X456750Y133417D02*
D03*
X440750D02*
D03*
X458250Y155417D02*
D03*
X430250D02*
D03*
X444250D02*
D03*
X224250Y34917D02*
D03*
Y26417D02*
D03*
X235250D02*
D03*
X140250Y18917D02*
D03*
X150250D02*
D03*
X160750D02*
D03*
X181750D02*
D03*
X192250D02*
D03*
X202750D02*
D03*
X213250D02*
D03*
X224250D02*
D03*
X235250D02*
D03*
X246750D02*
D03*
X258250D02*
D03*
X269750D02*
D03*
X281250D02*
D03*
X292750D02*
D03*
X304750D02*
D03*
X316250D02*
D03*
X349750D02*
D03*
X361750D02*
D03*
X373250D02*
D03*
X384750D02*
D03*
X395750D02*
D03*
X407250D02*
D03*
X418750D02*
D03*
X452750Y22917D02*
D03*
X463250D02*
D03*
X474250D02*
D03*
X485750D02*
D03*
X496750D02*
D03*
X508750D02*
D03*
X520750D02*
D03*
X429750Y25917D02*
D03*
Y18917D02*
D03*
X440750Y33417D02*
D03*
Y25917D02*
D03*
Y18917D02*
D03*
X547500Y185000D02*
D03*
X550500Y188000D02*
D03*
X544500Y182000D02*
D03*
X591750Y22917D02*
D03*
X603250D02*
D03*
X614750D02*
D03*
X626250D02*
D03*
X580250D02*
D03*
X532250Y34417D02*
D03*
X568750Y22917D02*
D03*
X556750D02*
D03*
X544250D02*
D03*
X532250D02*
D03*
X637750Y11917D02*
D03*
X626250D02*
D03*
X614750D02*
D03*
X603250D02*
D03*
X591750D02*
D03*
X580250D02*
D03*
X568750D02*
D03*
X556750D02*
D03*
X544250D02*
D03*
X532250D02*
D03*
X520750D02*
D03*
X508750D02*
D03*
X496750D02*
D03*
X485750D02*
D03*
X474250D02*
D03*
X463250D02*
D03*
X452750D02*
D03*
X440750D02*
D03*
X584750Y253417D02*
D03*
X597750Y230417D02*
D03*
X512250Y244417D02*
D03*
X466600Y162800D02*
D03*
X597750Y266417D02*
D03*
X611250Y279917D02*
D03*
X591250Y259917D02*
D03*
X576750Y277917D02*
D03*
X603750Y272417D02*
D03*
X532750Y318917D02*
D03*
Y330417D02*
D03*
X527750Y298417D02*
D03*
X550250Y387917D02*
D03*
Y376417D02*
D03*
X550750Y364917D02*
D03*
Y353417D02*
D03*
Y341917D02*
D03*
Y330417D02*
D03*
Y318917D02*
D03*
Y307417D02*
D03*
X574250Y387917D02*
D03*
X436750Y218917D02*
D03*
X574250Y376417D02*
D03*
X444250Y218917D02*
D03*
X574250Y364917D02*
D03*
X451750Y218917D02*
D03*
X573750Y353417D02*
D03*
X459250Y218917D02*
D03*
X573750Y341917D02*
D03*
X466250Y218917D02*
D03*
X573750Y330417D02*
D03*
X474250Y218917D02*
D03*
X481250Y218956D02*
D03*
X573750Y318917D02*
D03*
Y307417D02*
D03*
X494250Y212917D02*
D03*
X461250Y199667D02*
D03*
X322750Y233917D02*
D03*
X316750D02*
D03*
X429750Y11917D02*
D03*
X418750D02*
D03*
X407250D02*
D03*
X395750Y11417D02*
D03*
X384750D02*
D03*
X373250D02*
D03*
X361750D02*
D03*
X349750D02*
D03*
X316250D02*
D03*
X304750D02*
D03*
X292750D02*
D03*
X281250D02*
D03*
X269750D02*
D03*
X258250D02*
D03*
X246750D02*
D03*
X235250D02*
D03*
X224250D02*
D03*
X213250D02*
D03*
X202750D02*
D03*
X192250D02*
D03*
X181750D02*
D03*
X160750D02*
D03*
X150250D02*
D03*
X140250D02*
D03*
X81200Y69800D02*
D03*
X80500Y54500D02*
D03*
X42000Y52800D02*
D03*
X121000Y37000D02*
D03*
Y42500D02*
D03*
X66750Y166917D02*
D03*
X7250Y136417D02*
D03*
X7750Y165417D02*
D03*
Y158417D02*
D03*
X40500Y154000D02*
D03*
X7250Y142417D02*
D03*
X66750Y172917D02*
D03*
X7750D02*
D03*
X5250Y88917D02*
D03*
X42000Y48700D02*
D03*
X121000Y48500D02*
D03*
X322750Y247917D02*
D03*
X316750D02*
D03*
X304250D02*
D03*
X310750D02*
D03*
X280250D02*
D03*
X274250D02*
D03*
X286250D02*
D03*
X298250D02*
D03*
X268250D02*
D03*
X292250D02*
D03*
X638289Y387917D02*
D03*
X160750Y222917D02*
D03*
X206750Y223917D02*
D03*
X39250Y236917D02*
D03*
Y244917D02*
D03*
X60250Y236917D02*
D03*
Y242917D02*
D03*
Y248917D02*
D03*
Y254917D02*
D03*
X590250Y291417D02*
D03*
X583750Y284917D02*
D03*
X536750Y237917D02*
D03*
X529750Y230917D02*
D03*
X523750Y224917D02*
D03*
X517750Y218917D02*
D03*
X511750Y212917D02*
D03*
X505750Y206917D02*
D03*
X499250Y200417D02*
D03*
X493250Y194417D02*
D03*
X553750Y222417D02*
D03*
X548250Y216917D02*
D03*
X541250Y209917D02*
D03*
X525250Y193917D02*
D03*
X520250Y188917D02*
D03*
X514250Y182917D02*
D03*
X330400Y144100D02*
D03*
X343750Y132917D02*
D03*
X357250D02*
D03*
X371750D02*
D03*
X385250D02*
D03*
X399750D02*
D03*
X414250D02*
D03*
X429250D02*
D03*
X212250Y78417D02*
D03*
X207250Y48500D02*
D03*
X186100D02*
D03*
X168700D02*
D03*
X133750Y7917D02*
D03*
Y17917D02*
D03*
Y22917D02*
D03*
Y27917D02*
D03*
Y33417D02*
D03*
Y38417D02*
D03*
Y43417D02*
D03*
Y48417D02*
D03*
Y54417D02*
D03*
X109750Y117917D02*
D03*
X110250Y92417D02*
D03*
Y86917D02*
D03*
X114750Y81917D02*
D03*
X118250Y78417D02*
D03*
X128750Y67917D02*
D03*
X133750Y62417D02*
D03*
X281750Y72417D02*
D03*
X245500Y94700D02*
D03*
X117750Y153917D02*
D03*
Y158917D02*
D03*
X163250Y152417D02*
D03*
Y157917D02*
D03*
X237750Y127417D02*
D03*
X247750Y122417D02*
D03*
X116800Y127417D02*
D03*
X95250Y151878D02*
D03*
X140750D02*
D03*
X186300Y152200D02*
D03*
X231750Y153917D02*
D03*
X150250Y127417D02*
D03*
X141750Y127417D02*
D03*
X161500Y127417D02*
D03*
X206750D02*
D03*
X190250Y127417D02*
D03*
X292750Y133917D02*
D03*
X270250Y130417D02*
D03*
X260750Y131417D02*
D03*
X357250Y199417D02*
D03*
X334500Y206000D02*
D03*
X254500Y205000D02*
D03*
X255250Y159917D02*
D03*
X22250Y164917D02*
D03*
X14750Y166917D02*
D03*
X47250Y158917D02*
D03*
X52250D02*
D03*
X117750Y193917D02*
D03*
X163250D02*
D03*
X208750D02*
D03*
X117750Y171917D02*
D03*
X163250D02*
D03*
X208750D02*
D03*
X82750Y116917D02*
D03*
X47250Y123417D02*
D03*
X62250Y103417D02*
D03*
X70750Y121917D02*
D03*
X51750Y104917D02*
D03*
X32250Y122417D02*
D03*
X28750Y104917D02*
D03*
X34250Y108417D02*
D03*
X27250Y122917D02*
D03*
X70250Y93417D02*
D03*
X55250Y109417D02*
D03*
X64250Y108417D02*
D03*
X67250Y126417D02*
D03*
X62250D02*
D03*
X41750Y122417D02*
D03*
X11750Y149417D02*
D03*
X27250Y157917D02*
D03*
X57250Y159417D02*
D03*
X263750Y168417D02*
D03*
X95250Y159417D02*
D03*
X104750D02*
D03*
X90250D02*
D03*
X78750Y158917D02*
D03*
X112250Y153917D02*
D03*
X141250Y159417D02*
D03*
X84250Y158917D02*
D03*
X85250Y129917D02*
D03*
X117750Y141917D02*
D03*
X117250Y146917D02*
D03*
Y136917D02*
D03*
X80250Y130917D02*
D03*
X150250Y159917D02*
D03*
X135750D02*
D03*
X129750Y159417D02*
D03*
X136750Y127917D02*
D03*
X125250Y129917D02*
D03*
X157750Y153917D02*
D03*
X162250Y141917D02*
D03*
Y136917D02*
D03*
X123250Y158917D02*
D03*
X195750Y159917D02*
D03*
X186250D02*
D03*
X181250D02*
D03*
X202750Y153917D02*
D03*
X208250Y141917D02*
D03*
X175250Y158417D02*
D03*
X183250Y127417D02*
D03*
X171250Y129917D02*
D03*
X169250Y158417D02*
D03*
X208250Y136917D02*
D03*
X226750Y159917D02*
D03*
X220750Y160417D02*
D03*
X227750Y127417D02*
D03*
X221971Y136417D02*
D03*
X216750Y129917D02*
D03*
X215250Y158417D02*
D03*
X253750Y141417D02*
D03*
Y136417D02*
D03*
X221750Y141417D02*
D03*
X111250Y128417D02*
D03*
X156250D02*
D03*
X202250D02*
D03*
X247750Y127917D02*
D03*
X85750Y141917D02*
D03*
X130750D02*
D03*
X161750Y146917D02*
D03*
X176750Y141917D02*
D03*
X208250Y146917D02*
D03*
X217250Y78417D02*
D03*
X155250Y77917D02*
D03*
X636750Y307417D02*
D03*
Y318917D02*
D03*
X306250Y93917D02*
D03*
X636750Y330417D02*
D03*
X292750Y80917D02*
D03*
X286625Y93042D02*
D03*
X636250Y341917D02*
D03*
X636750Y353417D02*
D03*
X272250Y80917D02*
D03*
X636750Y364917D02*
D03*
X264750Y73917D02*
D03*
X636250Y376417D02*
D03*
X253750Y77417D02*
D03*
X379250Y225917D02*
D03*
X373750Y231917D02*
D03*
X340750Y263917D02*
D03*
X368250Y237417D02*
D03*
X362750Y242917D02*
D03*
X346250Y258917D02*
D03*
X379750Y191917D02*
D03*
X27250Y215417D02*
D03*
X117250Y240417D02*
D03*
X310750Y224917D02*
D03*
X304250Y224917D02*
D03*
X298250D02*
D03*
X292250D02*
D03*
X286250D02*
D03*
X280250D02*
D03*
X274250D02*
D03*
X268250D02*
D03*
X243750Y235417D02*
D03*
X198250D02*
D03*
X153750D02*
D03*
X107750D02*
D03*
X184250Y245417D02*
D03*
X62935Y207102D02*
D03*
X38203Y212870D02*
D03*
D151*
X93738Y118062D02*
D03*
X401900Y199400D02*
D03*
X397799Y155417D02*
D03*
X376000Y155700D02*
D03*
X266750Y141417D02*
D03*
X273750Y137917D02*
D03*
X281750Y135417D02*
D03*
X341605Y155442D02*
D03*
X297081Y85981D02*
D03*
X32250Y88917D02*
D03*
X651250Y237917D02*
D03*
X648990Y230177D02*
D03*
X569250Y270417D02*
D03*
X449250Y83417D02*
D03*
X451250Y154917D02*
D03*
X465250D02*
D03*
X462250Y83417D02*
D03*
X518250Y157417D02*
D03*
X524750D02*
D03*
X476250Y82917D02*
D03*
X479250Y154917D02*
D03*
X493250Y160917D02*
D03*
Y88917D02*
D03*
X507750Y84917D02*
D03*
X535250Y154917D02*
D03*
X536750Y84917D02*
D03*
X522250Y88917D02*
D03*
X542250D02*
D03*
X552750Y83417D02*
D03*
X549250Y154917D02*
D03*
X531561Y88417D02*
D03*
X502750D02*
D03*
X473990Y88442D02*
D03*
X445750Y88917D02*
D03*
X513750D02*
D03*
X485250D02*
D03*
X456750D02*
D03*
X85750Y91917D02*
D03*
X62250Y162417D02*
D03*
X437250Y154917D02*
D03*
X288750Y139417D02*
D03*
X279250Y84917D02*
D03*
X300750Y133917D02*
D03*
X306250Y136417D02*
D03*
X312250Y138417D02*
D03*
X318250Y140417D02*
D03*
X434750Y83417D02*
D03*
X353250Y155917D02*
D03*
X423250Y154917D02*
D03*
X420750Y83417D02*
D03*
X409250Y155417D02*
D03*
X406750Y83417D02*
D03*
X399750Y88917D02*
D03*
X392750Y83417D02*
D03*
X378750D02*
D03*
X365250Y82917D02*
D03*
X367250Y155417D02*
D03*
X350750Y83417D02*
D03*
X337250D02*
D03*
X417250Y88917D02*
D03*
X388750Y88417D02*
D03*
X360250D02*
D03*
X331750D02*
D03*
X428250D02*
D03*
X371250Y88917D02*
D03*
X342750D02*
D03*
X316250Y85917D02*
D03*
X260750Y86417D02*
D03*
D216*
X58337Y376695D02*
D03*
X50463D02*
D03*
D217*
X67589Y354058D02*
D03*
X41211D02*
D03*
D218*
X649936Y291632D02*
D03*
X644369Y286064D02*
D03*
X522836Y288032D02*
D03*
X517269Y282464D02*
D03*
D219*
X672486Y282166D02*
D03*
X653834Y263514D02*
D03*
X545386Y278566D02*
D03*
X526734Y259914D02*
D03*
D220*
X374969Y283000D02*
D03*
X376937D02*
D03*
X382842Y268039D02*
D03*
X380874D02*
D03*
X378906D02*
D03*
X376937D02*
D03*
X374969D02*
D03*
X373000D02*
D03*
Y283000D02*
D03*
X378906D02*
D03*
X382842D02*
D03*
X380874D02*
D03*
D221*
X384000Y313600D02*
D03*
X388000D02*
D03*
X360000D02*
D03*
X364000D02*
D03*
X368000D02*
D03*
X372000D02*
D03*
X376000D02*
D03*
X380000D02*
D03*
D222*
X318250Y169988D02*
D03*
Y153847D02*
D03*
X232750Y87347D02*
D03*
Y103488D02*
D03*
X124250D02*
D03*
Y87347D02*
D03*
X139750Y103488D02*
D03*
Y87347D02*
D03*
X155250Y103488D02*
D03*
Y87347D02*
D03*
X170750Y103488D02*
D03*
Y87347D02*
D03*
X186250Y103488D02*
D03*
Y87347D02*
D03*
X201750Y103488D02*
D03*
Y87347D02*
D03*
X217250Y103488D02*
D03*
Y87347D02*
D03*
D223*
X70439Y99362D02*
D03*
Y108417D02*
D03*
Y117472D02*
D03*
X20439Y113472D02*
D03*
Y104417D02*
D03*
Y95362D02*
D03*
D224*
X94061Y108417D02*
D03*
X44061Y104417D02*
D03*
D225*
X236494Y245417D02*
D03*
Y240417D02*
D03*
Y235417D02*
D03*
Y230417D02*
D03*
X217006D02*
D03*
Y235417D02*
D03*
Y240417D02*
D03*
Y245417D02*
D03*
X171506D02*
D03*
Y240417D02*
D03*
Y235417D02*
D03*
Y230417D02*
D03*
X190994D02*
D03*
Y235417D02*
D03*
Y240417D02*
D03*
Y245417D02*
D03*
X126506D02*
D03*
Y240417D02*
D03*
Y235417D02*
D03*
Y230417D02*
D03*
X145994D02*
D03*
Y235417D02*
D03*
Y240417D02*
D03*
Y245417D02*
D03*
X80506D02*
D03*
Y240417D02*
D03*
Y235417D02*
D03*
Y230417D02*
D03*
X99994D02*
D03*
Y235417D02*
D03*
Y240417D02*
D03*
Y245417D02*
D03*
X247494Y131417D02*
D03*
Y136417D02*
D03*
Y141417D02*
D03*
Y146417D02*
D03*
X228006D02*
D03*
Y141417D02*
D03*
Y136417D02*
D03*
Y131417D02*
D03*
X201994Y131917D02*
D03*
Y136917D02*
D03*
Y141917D02*
D03*
Y146917D02*
D03*
X182506D02*
D03*
Y141917D02*
D03*
Y136917D02*
D03*
Y131917D02*
D03*
X155994D02*
D03*
Y136917D02*
D03*
Y141917D02*
D03*
Y146917D02*
D03*
X136506D02*
D03*
Y141917D02*
D03*
Y136917D02*
D03*
Y131917D02*
D03*
X110994D02*
D03*
Y136917D02*
D03*
Y141917D02*
D03*
Y146917D02*
D03*
X91506D02*
D03*
Y141917D02*
D03*
Y136917D02*
D03*
Y131917D02*
D03*
D226*
X473240Y297000D02*
D03*
X469500Y286764D02*
D03*
X473240D02*
D03*
X465760D02*
D03*
X469500Y297000D02*
D03*
X465760D02*
D03*
D227*
X469500Y291882D02*
D03*
D228*
X66240Y147276D02*
D03*
X58760D02*
D03*
X62500Y156724D02*
D03*
D229*
X168500Y261500D02*
D03*
X157500D02*
D03*
D230*
X274945Y385740D02*
D03*
D231*
X275831Y397354D02*
D03*
D232*
X216972D02*
D03*
D233*
X217366Y354047D02*
D03*
D234*
X276421Y352079D02*
D03*
D235*
X271402Y345583D02*
D03*
X266874D02*
D03*
X262543D02*
D03*
X258213D02*
D03*
X253882D02*
D03*
X249551D02*
D03*
X245220D02*
D03*
X240890D02*
D03*
X236559D02*
D03*
D236*
X339800Y392000D02*
D03*
X408200D02*
D03*
D237*
X348100Y313600D02*
D03*
X355300D02*
D03*
X392700D02*
D03*
X399900D02*
D03*
D238*
X385402Y280441D02*
D03*
Y278472D02*
D03*
Y276504D02*
D03*
Y274535D02*
D03*
Y272567D02*
D03*
Y270598D02*
D03*
X370441D02*
D03*
Y272567D02*
D03*
Y274535D02*
D03*
Y276504D02*
D03*
Y278472D02*
D03*
Y280441D02*
D03*
D239*
X377921Y275520D02*
D03*
D240*
X414500Y267520D02*
D03*
Y282480D02*
D03*
D241*
X582300Y112935D02*
D03*
Y79865D02*
D03*
X628900Y112935D02*
D03*
Y79865D02*
D03*
D242*
X582567Y149000D02*
D03*
X618000D02*
D03*
D243*
X446500Y290154D02*
D03*
Y296847D02*
D03*
X483000Y290154D02*
D03*
Y296847D02*
D03*
X456000D02*
D03*
Y290154D02*
D03*
X492500Y296847D02*
D03*
Y290154D02*
D03*
D244*
X184700Y342000D02*
D03*
Y353000D02*
D03*
D245*
X342008Y170659D02*
D03*
X334492Y178176D02*
D03*
M02*
