G04*
G04 #@! TF.GenerationSoftware,Altium Limited,Altium Designer,19.1.5 (86)*
G04*
G04 Layer_Color=128*
%FSLAX25Y25*%
%MOIN*%
G70*
G01*
G75*
%ADD246C,0.00200*%
D246*
X85770Y36400D02*
X91085D01*
X88428Y33742D02*
Y39057D01*
X75928Y36400D02*
X81243D01*
X78585Y33742D02*
Y39057D01*
X66085Y36400D02*
X71400D01*
X68743Y33742D02*
Y39057D01*
X56243Y36400D02*
X61558D01*
X58900Y33742D02*
Y39057D01*
X25480Y361680D02*
X29221D01*
X27350Y359810D02*
Y363550D01*
X25480Y296720D02*
X29221D01*
X27350Y294850D02*
Y298590D01*
X6780Y361680D02*
X10520D01*
X8650Y359810D02*
Y363550D01*
X6780Y296720D02*
X10520D01*
X8650Y294850D02*
Y298590D01*
X16622Y352822D02*
X19378D01*
X18000Y351444D02*
Y354200D01*
X16622Y344948D02*
X19378D01*
X18000Y343570D02*
Y346326D01*
X16622Y337074D02*
X19378D01*
X18000Y335696D02*
Y338452D01*
X16622Y329200D02*
X19378D01*
X18000Y327822D02*
Y330578D01*
X16622Y321326D02*
X19378D01*
X18000Y319948D02*
Y322704D01*
X16622Y313452D02*
X19378D01*
X18000Y312074D02*
Y314830D01*
X16622Y305578D02*
X19378D01*
X18000Y304200D02*
Y306956D01*
X592142Y194500D02*
X595488D01*
X593815Y192827D02*
Y196173D01*
X611827Y194500D02*
X615173D01*
X613500Y192827D02*
Y196173D01*
X648827Y167630D02*
X652173D01*
X650500Y165957D02*
Y169303D01*
X648827Y207000D02*
X652173D01*
X650500Y205327D02*
Y208673D01*
X452750Y36417D02*
X455750D01*
X454250Y34917D02*
Y37917D01*
X462593Y36417D02*
X465592D01*
X464092Y34917D02*
Y37917D01*
X472435Y36417D02*
X475435D01*
X473935Y34917D02*
Y37917D01*
X482278Y36417D02*
X485278D01*
X483778Y34917D02*
Y37917D01*
X492120Y36417D02*
X495120D01*
X493620Y34917D02*
Y37917D01*
X501963Y36417D02*
X504963D01*
X503463Y34917D02*
Y37917D01*
X511805Y36417D02*
X514805D01*
X513305Y34917D02*
Y37917D01*
X521648Y36417D02*
X524648D01*
X523148Y34917D02*
Y37917D01*
X548953Y36500D02*
X553677D01*
X551315Y34138D02*
Y38862D01*
X558795Y36500D02*
X563520D01*
X561158Y34138D02*
Y38862D01*
X568638Y36500D02*
X573362D01*
X571000Y34138D02*
Y38862D01*
X172043Y322500D02*
X177949D01*
X174996Y319547D02*
Y325453D01*
X109051Y322501D02*
X114956D01*
X112003Y319548D02*
Y325453D01*
X229472Y368417D02*
X232031D01*
X230752Y367138D02*
Y369697D01*
X259098Y368417D02*
X261854D01*
X260476Y367039D02*
Y369795D01*
X342602Y392000D02*
X355398D01*
X349000Y385602D02*
Y398398D01*
X392602Y392000D02*
X405398D01*
X399000Y385602D02*
Y398398D01*
X460835Y390000D02*
X465165D01*
X463000Y387835D02*
Y392165D01*
X430835Y386004D02*
X435165D01*
X433000Y383839D02*
Y388169D01*
X430835Y393996D02*
X435165D01*
X433000Y391831D02*
Y396162D01*
X655484Y33087D02*
X664933D01*
X660209Y28362D02*
Y37811D01*
X594067Y33087D02*
X603516D01*
X598791Y28362D02*
Y37811D01*
X640917Y36630D02*
X645642D01*
X643280Y34268D02*
Y38992D01*
X627138Y36630D02*
X631862D01*
X629500Y34268D02*
Y38992D01*
X613358Y36630D02*
X618083D01*
X615721Y34268D02*
Y38992D01*
X676827Y207000D02*
X680173D01*
X678500Y205327D02*
Y208673D01*
X676827Y167630D02*
X680173D01*
X678500Y165957D02*
Y169303D01*
X678750Y393917D02*
X690750D01*
X684750Y387917D02*
Y399917D01*
X8250Y22417D02*
X20250D01*
X14250Y16417D02*
Y28417D01*
X8250Y228917D02*
X20250D01*
X14250Y222917D02*
Y234917D01*
X298750Y393417D02*
X310750D01*
X304750Y387417D02*
Y399417D01*
X678748Y22417D02*
X690748D01*
X684748Y16417D02*
Y28417D01*
X8250Y393417D02*
X20250D01*
X14250Y387417D02*
Y399417D01*
X328000Y22417D02*
X340000D01*
X334000Y16417D02*
Y28417D01*
X264250Y182917D02*
X267250D01*
X265750Y181417D02*
Y184417D01*
X317250Y182917D02*
X320250D01*
X318750Y181417D02*
Y184417D01*
X306250Y174417D02*
X309250D01*
X307750Y172917D02*
Y175917D01*
X298750Y174417D02*
X301750D01*
X300250Y172917D02*
Y175917D01*
X290750Y174417D02*
X293750D01*
X292250Y172917D02*
Y175917D01*
X283750Y174417D02*
X286750D01*
X285250Y172917D02*
Y175917D01*
X275750Y174417D02*
X278750D01*
X277250Y172917D02*
Y175917D01*
X305750Y182917D02*
X308750D01*
X307250Y181417D02*
Y184417D01*
X298250Y182917D02*
X301250D01*
X299750Y181417D02*
Y184417D01*
X290750Y182917D02*
X293750D01*
X292250Y181417D02*
Y184417D01*
X283250Y182917D02*
X286250D01*
X284750Y181417D02*
Y184417D01*
X275750Y182917D02*
X278750D01*
X277250Y181417D02*
Y184417D01*
X305750Y191417D02*
X308750D01*
X307250Y189917D02*
Y192917D01*
X298250Y191417D02*
X301250D01*
X299750Y189917D02*
Y192917D01*
X290750Y191417D02*
X293750D01*
X292250Y189917D02*
Y192917D01*
X283250Y191417D02*
X286250D01*
X284750Y189917D02*
Y192917D01*
X275750Y191417D02*
X278750D01*
X277250Y189917D02*
Y192917D01*
X210620Y36417D02*
X213620D01*
X212120Y34917D02*
Y37917D01*
X200778Y36417D02*
X203778D01*
X202278Y34917D02*
Y37917D01*
X190935Y36417D02*
X193935D01*
X192435Y34917D02*
Y37917D01*
X181093Y36417D02*
X184092D01*
X182592Y34917D02*
Y37917D01*
X171250Y36417D02*
X174250D01*
X172750Y34917D02*
Y37917D01*
X161407Y36417D02*
X164408D01*
X162908Y34917D02*
Y37917D01*
X151565Y36417D02*
X154565D01*
X153065Y34917D02*
Y37917D01*
X141722Y36417D02*
X144722D01*
X143222Y34917D02*
Y37917D01*
X426920Y36417D02*
X429920D01*
X428420Y34917D02*
Y37917D01*
X417078Y36417D02*
X420078D01*
X418578Y34917D02*
Y37917D01*
X407235Y36417D02*
X410235D01*
X408735Y34917D02*
Y37917D01*
X397393Y36417D02*
X400392D01*
X398892Y34917D02*
Y37917D01*
X387550Y36417D02*
X390550D01*
X389050Y34917D02*
Y37917D01*
X377708Y36417D02*
X380708D01*
X379207Y34917D02*
Y37917D01*
X367865Y36417D02*
X370865D01*
X369365Y34917D02*
Y37917D01*
X358022Y36417D02*
X361022D01*
X359522Y34917D02*
Y37917D01*
X305405Y36417D02*
X308405D01*
X306905Y34917D02*
Y37917D01*
X295563Y36417D02*
X298563D01*
X297063Y34917D02*
Y37917D01*
X285720Y36417D02*
X288720D01*
X287220Y34917D02*
Y37917D01*
X275878Y36417D02*
X278878D01*
X277378Y34917D02*
Y37917D01*
X266035Y36417D02*
X269035D01*
X267535Y34917D02*
Y37917D01*
X256192Y36417D02*
X259192D01*
X257693Y34917D02*
Y37917D01*
X246350Y36417D02*
X249350D01*
X247850Y34917D02*
Y37917D01*
X236508Y36417D02*
X239508D01*
X238007Y34917D02*
Y37917D01*
X623500Y399100D02*
X624300D01*
X623900Y398700D02*
Y399500D01*
X75800Y90600D02*
X76800D01*
X76300Y90100D02*
Y91100D01*
X70900Y71300D02*
X71700D01*
X71300Y70900D02*
Y71700D01*
X104500Y62800D02*
X105300D01*
X104900Y62400D02*
Y63200D01*
X102100Y65200D02*
X102900D01*
X102500Y64800D02*
Y65600D01*
X88700Y68700D02*
X89500D01*
X89100Y68300D02*
Y69100D01*
X90815Y70815D02*
X91615D01*
X91215Y70415D02*
Y71215D01*
X21750Y89917D02*
X22750D01*
X22250Y89417D02*
Y90417D01*
X24700Y71800D02*
X25500D01*
X25100Y71400D02*
Y72200D01*
X24600Y68900D02*
X25600D01*
X25100Y68400D02*
Y69400D01*
X38400Y69500D02*
X39200D01*
X38800Y69100D02*
Y69900D01*
X43300Y80400D02*
X44100D01*
X43700Y80000D02*
Y80800D01*
X40200Y80400D02*
X41000D01*
X40600Y80000D02*
Y80800D01*
X73800Y88500D02*
X74600D01*
X74200Y88100D02*
Y88900D01*
X65300Y70700D02*
X66300D01*
X65800Y70200D02*
Y71200D01*
X35500Y69500D02*
X36300D01*
X35900Y69100D02*
Y69900D01*
X121250Y74917D02*
X122250D01*
X121750Y74417D02*
Y75417D01*
X124750Y71417D02*
X125750D01*
X125250Y70917D02*
Y71917D01*
X70900Y68000D02*
X71700D01*
X71300Y67600D02*
Y68400D01*
X78850Y47400D02*
X79650D01*
X79250Y47000D02*
Y47800D01*
X101500Y72200D02*
X102300D01*
X101900Y71800D02*
Y72600D01*
X101500Y75100D02*
X102300D01*
X101900Y74700D02*
Y75500D01*
X75900Y47400D02*
X76700D01*
X76300Y47000D02*
Y47800D01*
X54294Y50506D02*
X55094D01*
X54694Y50106D02*
Y50906D01*
X14689Y71011D02*
X15489D01*
X15089Y70611D02*
Y71411D01*
X14700Y73900D02*
X15500D01*
X15100Y73500D02*
Y74300D01*
X14439Y48961D02*
X15239D01*
X14839Y48561D02*
Y49361D01*
X14400Y52000D02*
X15200D01*
X14800Y51600D02*
Y52400D01*
X52189Y52611D02*
X52989D01*
X52589Y52211D02*
Y53011D01*
X67500Y132200D02*
X68500D01*
X68000Y131700D02*
Y132700D01*
X19900Y69400D02*
X20900D01*
X20400Y68900D02*
Y69900D01*
X41700Y74600D02*
X42700D01*
X42200Y74100D02*
Y75100D01*
X92988Y118062D02*
X94488D01*
X93738Y117312D02*
Y118812D01*
X175100Y128100D02*
X176100D01*
X175600Y127600D02*
Y128600D01*
X623400Y392600D02*
X624400D01*
X623900Y392100D02*
Y393100D01*
X670700Y91700D02*
X671700D01*
X671200Y91200D02*
Y92200D01*
X670700Y131600D02*
X671700D01*
X671200Y131100D02*
Y132100D01*
X670700Y99700D02*
X671700D01*
X671200Y99200D02*
Y100200D01*
X670700Y107700D02*
X671700D01*
X671200Y107200D02*
Y108200D01*
X670700Y115600D02*
X671700D01*
X671200Y115100D02*
Y116100D01*
X670700Y123400D02*
X671700D01*
X671200Y122900D02*
Y123900D01*
X247900Y77100D02*
X248900D01*
X248400Y76600D02*
Y77600D01*
X256600Y81500D02*
X257600D01*
X257100Y81000D02*
Y82000D01*
X301300Y69300D02*
X302300D01*
X301800Y68800D02*
Y69800D01*
X291700Y66900D02*
X292700D01*
X292200Y66400D02*
Y67400D01*
X244900Y73800D02*
X245900D01*
X245400Y73300D02*
Y74300D01*
X256000Y68200D02*
X257000D01*
X256500Y67700D02*
Y68700D01*
X263900Y68800D02*
X264900D01*
X264400Y68300D02*
Y69300D01*
X276100Y80700D02*
X277100D01*
X276600Y80200D02*
Y81200D01*
X301300Y89600D02*
X302300D01*
X301800Y89100D02*
Y90100D01*
X321900Y133300D02*
X322900D01*
X322400Y132800D02*
Y133800D01*
X326700Y147700D02*
X327700D01*
X327200Y147200D02*
Y148200D01*
X267400D02*
X268400D01*
X267900Y147700D02*
Y148700D01*
X649700Y129500D02*
X650700D01*
X650200Y129000D02*
Y130000D01*
X628600Y54100D02*
X629600D01*
X629100Y53600D02*
Y54600D01*
X597900Y59300D02*
X598900D01*
X598400Y58800D02*
Y59800D01*
X591700Y59500D02*
X592700D01*
X592200Y59000D02*
Y60000D01*
X683100Y245300D02*
X684100D01*
X683600Y244800D02*
Y245800D01*
X683100Y253900D02*
X684100D01*
X683600Y253400D02*
Y254400D01*
X676200Y343300D02*
X677200D01*
X676700Y342800D02*
Y343800D01*
X676200Y352100D02*
X677200D01*
X676700Y351600D02*
Y352600D01*
X676000Y360400D02*
X677000D01*
X676500Y359900D02*
Y360900D01*
X544200Y396800D02*
X545200D01*
X544700Y396300D02*
Y397300D01*
X539100Y396800D02*
X540100D01*
X539600Y396300D02*
Y397300D01*
X495700Y320300D02*
X496700D01*
X496200Y319800D02*
Y320800D01*
X486400Y277900D02*
X487400D01*
X486900Y277400D02*
Y278400D01*
X496200Y237200D02*
X497200D01*
X496700Y236700D02*
Y237700D01*
X335300Y222900D02*
X336300D01*
X335800Y222400D02*
Y223400D01*
X335400Y218500D02*
X336400D01*
X335900Y218000D02*
Y219000D01*
X253600Y249300D02*
X254600D01*
X254100Y248800D02*
Y249800D01*
X9900Y202400D02*
X10900D01*
X10400Y201900D02*
Y202900D01*
X338400Y309200D02*
X339400D01*
X338900Y308700D02*
Y309700D01*
X324100Y309200D02*
X325100D01*
X324600Y308700D02*
Y309700D01*
X321600Y56300D02*
X322600D01*
X322100Y55800D02*
Y56800D01*
X321500Y62000D02*
X322500D01*
X322000Y61500D02*
Y62500D01*
X417200Y255500D02*
X418200D01*
X417700Y255000D02*
Y256000D01*
X422300Y208700D02*
X423300D01*
X422800Y208200D02*
Y209200D01*
X496200Y242400D02*
X497200D01*
X496700Y241900D02*
Y242900D01*
X135400Y236000D02*
X136400D01*
X135900Y235500D02*
Y236500D01*
X112700Y231600D02*
X113700D01*
X113200Y231100D02*
Y232100D01*
X66900Y326900D02*
X67900D01*
X67400Y326400D02*
Y327400D01*
X43300Y296000D02*
X44300D01*
X43800Y295500D02*
Y296500D01*
X421000Y399400D02*
X422000D01*
X421500Y398900D02*
Y399900D01*
X421000Y378800D02*
X422000D01*
X421500Y378300D02*
Y379300D01*
X427700Y333500D02*
X428700D01*
X428200Y333000D02*
Y334000D01*
X421000Y333500D02*
X422000D01*
X421500Y333000D02*
Y334000D01*
X481000Y354400D02*
X482000D01*
X481500Y353900D02*
Y354900D01*
X474500Y354400D02*
X475500D01*
X475000Y353900D02*
Y354900D01*
X462900Y316100D02*
X463900D01*
X463400Y315600D02*
Y316600D01*
X455800Y316000D02*
X456800D01*
X456300Y315500D02*
Y316500D01*
X415400Y299700D02*
X416400D01*
X415900Y299200D02*
Y300200D01*
X217200Y124100D02*
X218200D01*
X217700Y123600D02*
Y124600D01*
X199500Y123500D02*
X200500D01*
X200000Y123000D02*
Y124000D01*
X150800Y119000D02*
X151800D01*
X151300Y118500D02*
Y119500D01*
X380300Y288600D02*
X381300D01*
X380800Y288100D02*
Y289100D01*
X401150Y199400D02*
X402650D01*
X401900Y198650D02*
Y200150D01*
X411400Y214600D02*
X412400D01*
X411900Y214100D02*
Y215100D01*
X388800Y288800D02*
X389800D01*
X389300Y288300D02*
Y289300D01*
X376603Y286300D02*
X377403D01*
X377003Y285900D02*
Y286700D01*
X374503Y286300D02*
X375303D01*
X374903Y285900D02*
Y286700D01*
X385800Y302100D02*
X386600D01*
X386200Y301700D02*
Y302500D01*
X387900Y302100D02*
X388700D01*
X388300Y301700D02*
Y302500D01*
X378000Y301500D02*
X379000D01*
X378500Y301000D02*
Y302000D01*
X360500Y372500D02*
X361500D01*
X361000Y372000D02*
Y373000D01*
X331400Y305200D02*
X332400D01*
X331900Y304700D02*
Y305700D01*
X323900Y285800D02*
X324900D01*
X324400Y285300D02*
Y286300D01*
X537500Y161347D02*
X538500D01*
X538000Y160847D02*
Y161847D01*
X532953Y161347D02*
X533953D01*
X533453Y160847D02*
Y161847D01*
X50000Y386900D02*
X51000D01*
X50500Y386400D02*
Y387400D01*
X488350Y172900D02*
X489350D01*
X488850Y172400D02*
Y173400D01*
X483000Y172900D02*
X484000D01*
X483500Y172400D02*
Y173400D01*
X493700Y172900D02*
X494700D01*
X494200Y172400D02*
Y173400D01*
X397049Y155417D02*
X398549D01*
X397799Y154667D02*
Y156167D01*
X387700Y157100D02*
X388700D01*
X388200Y156600D02*
Y157600D01*
X375250Y155700D02*
X376750D01*
X376000Y154950D02*
Y156450D01*
X335300Y166200D02*
X336300D01*
X335800Y165700D02*
Y166700D01*
X332700Y163800D02*
X333700D01*
X333200Y163300D02*
Y164300D01*
X256250Y146417D02*
X257250D01*
X256750Y145917D02*
Y146917D01*
X266000Y141417D02*
X267500D01*
X266750Y140667D02*
Y142167D01*
X273000Y137917D02*
X274500D01*
X273750Y137167D02*
Y138667D01*
X281000Y135417D02*
X282500D01*
X281750Y134667D02*
Y136167D01*
X231250Y159917D02*
X232250D01*
X231750Y159417D02*
Y160417D01*
X340855Y155442D02*
X342355D01*
X341605Y154692D02*
Y156192D01*
X345750Y155417D02*
X346750D01*
X346250Y154917D02*
Y155917D01*
X535250Y204417D02*
X536250D01*
X535750Y203917D02*
Y204917D01*
X361750Y162417D02*
X362750D01*
X362250Y161917D02*
Y162917D01*
X240384Y159800D02*
X241384D01*
X240884Y159300D02*
Y160300D01*
X643100Y280200D02*
X644100D01*
X643600Y279700D02*
Y280700D01*
X640200Y283100D02*
X641200D01*
X640700Y282600D02*
Y283600D01*
X637300Y286000D02*
X638300D01*
X637800Y285500D02*
Y286500D01*
X276400Y336000D02*
X277400D01*
X276900Y335500D02*
Y336500D01*
X253000Y306000D02*
X254000D01*
X253500Y305500D02*
Y306500D01*
X215900Y273000D02*
X216900D01*
X216400Y272500D02*
Y273500D01*
X140000Y288500D02*
X141000D01*
X140500Y288000D02*
Y289000D01*
X290300Y370200D02*
X291300D01*
X290800Y369700D02*
Y370700D01*
X246700Y306000D02*
X247700D01*
X247200Y305500D02*
Y306500D01*
X205300Y270500D02*
X206300D01*
X205800Y270000D02*
Y271000D01*
X242100Y306000D02*
X243100D01*
X242600Y305500D02*
Y306500D01*
X297800Y372100D02*
X298800D01*
X298300Y371600D02*
Y372600D01*
X387200Y348000D02*
X388200D01*
X387700Y347500D02*
Y348500D01*
X130200Y372700D02*
X131200D01*
X130700Y372200D02*
Y373200D01*
X132000Y332500D02*
X133000D01*
X132500Y332000D02*
Y333000D01*
X129500Y335000D02*
X130500D01*
X130000Y334500D02*
Y335500D01*
X134500Y330000D02*
X135500D01*
X135000Y329500D02*
Y330500D01*
X131200Y296400D02*
X132200D01*
X131700Y295900D02*
Y296900D01*
X348400Y330500D02*
X349400D01*
X348900Y330000D02*
Y331000D01*
X387400Y342500D02*
X388400D01*
X387900Y342000D02*
Y343000D01*
X221100Y305800D02*
X222100D01*
X221600Y305300D02*
Y306300D01*
X387200Y355100D02*
X388200D01*
X387700Y354600D02*
Y355600D01*
X177400Y370600D02*
X178400D01*
X177900Y370100D02*
Y371100D01*
X387000Y360600D02*
X388000D01*
X387500Y360100D02*
Y361100D01*
X192400Y349500D02*
X193400D01*
X192900Y349000D02*
Y350000D01*
X192488Y353012D02*
X193488D01*
X192988Y352512D02*
Y353512D01*
X139500Y297500D02*
X140500D01*
X140000Y297000D02*
Y298000D01*
X406400Y214500D02*
X407400D01*
X406900Y214000D02*
Y215000D01*
X149000Y261500D02*
X150000D01*
X149500Y261000D02*
Y262000D01*
X149000Y272000D02*
X150000D01*
X149500Y271500D02*
Y272500D01*
X148900Y265300D02*
X149900D01*
X149400Y264800D02*
Y265800D01*
X34500Y329200D02*
X35500D01*
X35000Y328700D02*
Y329700D01*
X176200Y347100D02*
X177200D01*
X176700Y346600D02*
Y347600D01*
X175400Y337600D02*
X176400D01*
X175900Y337100D02*
Y338100D01*
X174300Y355600D02*
X175300D01*
X174800Y355100D02*
Y356100D01*
X45600Y316900D02*
X46600D01*
X46100Y316400D02*
Y317400D01*
X110900Y345900D02*
X111900D01*
X111400Y345400D02*
Y346400D01*
X61600Y323100D02*
X62600D01*
X62100Y322600D02*
Y323600D01*
X110800Y349500D02*
X111800D01*
X111300Y349000D02*
Y350000D01*
X34500Y321800D02*
X35500D01*
X35000Y321300D02*
Y322300D01*
X28800Y332800D02*
X29800D01*
X29300Y332300D02*
Y333300D01*
X28900Y318600D02*
X29900D01*
X29400Y318100D02*
Y319100D01*
X45100Y321800D02*
X46100D01*
X45600Y321300D02*
Y322300D01*
X45100Y329300D02*
X46100D01*
X45600Y328800D02*
Y329800D01*
X312700Y364500D02*
X313700D01*
X313200Y364000D02*
Y365000D01*
X330200Y362000D02*
X331200D01*
X330700Y361500D02*
Y362500D01*
X337600Y336800D02*
X338600D01*
X338100Y336300D02*
Y337300D01*
X297700Y345300D02*
X298700D01*
X298200Y344800D02*
Y345800D01*
X325800Y354100D02*
X326800D01*
X326300Y353600D02*
Y354600D01*
X573500Y128500D02*
X574500D01*
X574000Y128000D02*
Y129000D01*
X570000Y128500D02*
X571000D01*
X570500Y128000D02*
Y129000D01*
X573500Y132700D02*
X574500D01*
X574000Y132200D02*
Y133200D01*
X570000Y132700D02*
X571000D01*
X570500Y132200D02*
Y133200D01*
X605594Y148915D02*
X606594D01*
X606094Y148415D02*
Y149415D01*
X609500Y148900D02*
X610500D01*
X610000Y148400D02*
Y149400D01*
X594900Y140700D02*
X595900D01*
X595400Y140200D02*
Y141200D01*
X597400Y138200D02*
X598400D01*
X597900Y137700D02*
Y138700D01*
X601800Y122900D02*
X602800D01*
X602300Y122400D02*
Y123400D01*
X598200Y122900D02*
X599200D01*
X598700Y122400D02*
Y123400D01*
X601700Y126500D02*
X602700D01*
X602200Y126000D02*
Y127000D01*
X598100Y126400D02*
X599100D01*
X598600Y125900D02*
Y126900D01*
X594500Y126400D02*
X595500D01*
X595000Y125900D02*
Y126900D01*
X202066Y113848D02*
X203066D01*
X202566Y113348D02*
Y114348D01*
X174200Y111900D02*
X175200D01*
X174700Y111400D02*
Y112400D01*
X411500Y161000D02*
X412500D01*
X412000Y160500D02*
Y161500D01*
X407600Y160900D02*
X408600D01*
X408100Y160400D02*
Y161400D01*
X192600Y91600D02*
X193600D01*
X193100Y91100D02*
Y92100D01*
X202817Y159942D02*
X203817D01*
X203316Y159442D02*
Y160442D01*
X178100Y117400D02*
X179100D01*
X178600Y116900D02*
Y117900D01*
X318300Y78400D02*
X319300D01*
X318800Y77900D02*
Y78900D01*
X240750Y69917D02*
X241750D01*
X241250Y69417D02*
Y70417D01*
X185000Y69600D02*
X186000D01*
X185500Y69100D02*
Y70100D01*
X179200Y76000D02*
X180200D01*
X179700Y75500D02*
Y76500D01*
X198900Y69700D02*
X199900D01*
X199400Y69200D02*
Y70200D01*
X193000Y70600D02*
X194000D01*
X193500Y70100D02*
Y71100D01*
X197200Y78800D02*
X198200D01*
X197700Y78300D02*
Y79300D01*
X192648Y78800D02*
X193648D01*
X193148Y78300D02*
Y79300D01*
X187500Y78800D02*
X188500D01*
X188000Y78300D02*
Y79300D01*
X239600Y91400D02*
X240600D01*
X240100Y90900D02*
Y91900D01*
X203600Y75400D02*
X204600D01*
X204100Y74900D02*
Y75900D01*
X189800Y72800D02*
X190800D01*
X190300Y72300D02*
Y73300D01*
X205900Y118500D02*
X206900D01*
X206400Y118000D02*
Y119000D01*
X183800Y77200D02*
X184800D01*
X184300Y76700D02*
Y77700D01*
X174407Y74900D02*
X175407D01*
X174907Y74400D02*
Y75400D01*
X161600Y78300D02*
X162600D01*
X162100Y77800D02*
Y78800D01*
X131400Y95300D02*
X132400D01*
X131900Y94800D02*
Y95800D01*
X167300Y75200D02*
X168300D01*
X167800Y74700D02*
Y75700D01*
X296331Y85981D02*
X297831D01*
X297081Y85231D02*
Y86731D01*
X232300Y69600D02*
X233300D01*
X232800Y69100D02*
Y70100D01*
X133250Y12917D02*
X134250D01*
X133750Y12417D02*
Y13417D01*
X152500Y48500D02*
X153500D01*
X153000Y48000D02*
Y49000D01*
X142750Y72878D02*
X143750D01*
X143250Y72378D02*
Y73378D01*
X170750Y18917D02*
X171750D01*
X171250Y18417D02*
Y19417D01*
X170750Y11417D02*
X171750D01*
X171250Y10917D02*
Y11917D01*
X635500Y261500D02*
X636500D01*
X636000Y261000D02*
Y262000D01*
X530250Y199417D02*
X531250D01*
X530750Y198917D02*
Y199917D01*
X457500Y398500D02*
X458500D01*
X458000Y398000D02*
Y399000D01*
X409000Y372500D02*
X410000D01*
X409500Y372000D02*
Y373000D01*
X457500Y376500D02*
X458500D01*
X458000Y376000D02*
Y377000D01*
X452500Y367000D02*
X453500D01*
X453000Y366500D02*
Y367500D01*
X409000Y365500D02*
X410000D01*
X409500Y365000D02*
Y366000D01*
X434000Y365500D02*
X435000D01*
X434500Y365000D02*
Y366000D01*
X431000Y362500D02*
X432000D01*
X431500Y362000D02*
Y363000D01*
X434000Y379500D02*
X435000D01*
X434500Y379000D02*
Y380000D01*
X425500Y352000D02*
X426500D01*
X426000Y351500D02*
Y352500D01*
X452500Y398500D02*
X453500D01*
X453000Y398000D02*
Y399000D01*
X425500Y359500D02*
X426500D01*
X426000Y359000D02*
Y360000D01*
X455000Y363500D02*
X456000D01*
X455500Y363000D02*
Y364000D01*
X442500Y398500D02*
X443500D01*
X443000Y398000D02*
Y399000D01*
X474500Y370000D02*
X475500D01*
X475000Y369500D02*
Y370500D01*
X125500Y375000D02*
X126500D01*
X126000Y374500D02*
Y375500D01*
X43000Y202500D02*
X44000D01*
X43500Y202000D02*
Y203000D01*
X107994Y291994D02*
X108994D01*
X108494Y291494D02*
Y292494D01*
X115000Y295500D02*
X116000D01*
X115500Y295000D02*
Y296000D01*
X128000Y300000D02*
X129000D01*
X128500Y299500D02*
Y300500D01*
X138000Y301000D02*
X139000D01*
X138500Y300500D02*
Y301500D01*
X116000Y302500D02*
X117000D01*
X116500Y302000D02*
Y303000D01*
X164000Y337000D02*
X165000D01*
X164500Y336500D02*
Y337500D01*
X164000Y342000D02*
X165000D01*
X164500Y341500D02*
Y342500D01*
X132000D02*
X133000D01*
X132500Y342000D02*
Y343000D01*
X142000Y342500D02*
X143000D01*
X142500Y342000D02*
Y343000D01*
X137000Y342500D02*
X138000D01*
X137500Y342000D02*
Y343000D01*
X93000Y329500D02*
X94000D01*
X93500Y329000D02*
Y330000D01*
X157500Y371500D02*
X158500D01*
X158000Y371000D02*
Y372000D01*
X144700Y288600D02*
X145700D01*
X145200Y288100D02*
Y289100D01*
X141000Y252500D02*
X142000D01*
X141500Y252000D02*
Y253000D01*
X99750Y208417D02*
X100750D01*
X100250Y207917D02*
Y208917D01*
X145250Y208417D02*
X146250D01*
X145750Y207917D02*
Y208917D01*
X190750Y208417D02*
X191750D01*
X191250Y207917D02*
Y208917D01*
X236250Y208417D02*
X237250D01*
X236750Y207917D02*
Y208917D01*
X111000Y158500D02*
X112000D01*
X111500Y158000D02*
Y159000D01*
X156500Y158500D02*
X157500D01*
X157000Y158000D02*
Y159000D01*
X247500Y158500D02*
X248500D01*
X248000Y158000D02*
Y159000D01*
X374500Y272500D02*
X375500D01*
X375000Y272000D02*
Y273000D01*
X380500Y272500D02*
X381500D01*
X381000Y272000D02*
Y273000D01*
X380500Y278500D02*
X381500D01*
X381000Y278000D02*
Y279000D01*
X374500Y278500D02*
X375500D01*
X375000Y278000D02*
Y279000D01*
X377421Y275520D02*
X378421D01*
X377921Y275020D02*
Y276020D01*
X510282Y313167D02*
X511281D01*
X510781Y312667D02*
Y313667D01*
X510282Y324667D02*
X511281D01*
X510781Y324167D02*
Y325167D01*
X482500Y301000D02*
X483500D01*
X483000Y300500D02*
Y301500D01*
X475000Y284500D02*
X476000D01*
X475500Y284000D02*
Y285000D01*
X455500Y301000D02*
X456500D01*
X456000Y300500D02*
Y301500D01*
X193341Y331358D02*
X194341D01*
X193841Y330858D02*
Y331858D01*
X285500Y355500D02*
X286500D01*
X286000Y355000D02*
Y356000D01*
X230500Y324500D02*
X231500D01*
X231000Y324000D02*
Y325000D01*
X249000Y340500D02*
X250000D01*
X249500Y340000D02*
Y341000D01*
X211500Y348000D02*
X212500D01*
X212000Y347500D02*
Y348500D01*
X124000Y392000D02*
X125000D01*
X124500Y391500D02*
Y392500D01*
X254500Y232500D02*
X255500D01*
X255000Y232000D02*
Y233000D01*
X80000Y249500D02*
X81000D01*
X80500Y249000D02*
Y250000D01*
X126250Y249359D02*
X127250D01*
X126750Y248859D02*
Y249859D01*
X171000Y249500D02*
X172000D01*
X171500Y249000D02*
Y250000D01*
X216500Y248500D02*
X217500D01*
X217000Y248000D02*
Y249000D01*
X60000Y294000D02*
X61000D01*
X60500Y293500D02*
Y294500D01*
X61500Y285500D02*
X62500D01*
X62000Y285000D02*
Y286000D01*
X74000Y298500D02*
X75000D01*
X74500Y298000D02*
Y299000D01*
X89000Y325500D02*
X90000D01*
X89500Y325000D02*
Y326000D01*
X74000Y355000D02*
X75000D01*
X74500Y354500D02*
Y355500D01*
X110500Y374500D02*
X111500D01*
X111000Y374000D02*
Y375000D01*
X134142Y376500D02*
X135142D01*
X134642Y376000D02*
Y377000D01*
X153827Y376500D02*
X154827D01*
X154327Y376000D02*
Y377000D01*
X137000Y327500D02*
X138000D01*
X137500Y327000D02*
Y328000D01*
X194551Y356949D02*
X195551D01*
X195051Y356449D02*
Y357449D01*
X390000Y269500D02*
X391000D01*
X390500Y269000D02*
Y270000D01*
X201000Y315500D02*
X202000D01*
X201500Y315000D02*
Y316000D01*
X115000Y268000D02*
X116000D01*
X115500Y267500D02*
Y268500D01*
X138000Y273000D02*
X139000D01*
X138500Y272500D02*
Y273500D01*
X157764Y273000D02*
X158764D01*
X158264Y272500D02*
Y273500D01*
X178000Y286000D02*
X179000D01*
X178500Y285500D02*
Y286500D01*
X175500Y289000D02*
X176500D01*
X176000Y288500D02*
Y289500D01*
X170000Y294500D02*
X171000D01*
X170500Y294000D02*
Y295000D01*
X127000Y291000D02*
X128000D01*
X127500Y290500D02*
Y291500D01*
X355000Y262500D02*
X356000D01*
X355500Y262000D02*
Y263000D01*
X351250Y253417D02*
X352250D01*
X351750Y252917D02*
Y253917D01*
X403500Y258500D02*
X404500D01*
X404000Y258000D02*
Y259000D01*
X116500Y291500D02*
X117500D01*
X117000Y291000D02*
Y292000D01*
X121500Y294500D02*
X122500D01*
X122000Y294000D02*
Y295000D01*
X364500Y264500D02*
X365500D01*
X365000Y264000D02*
Y265000D01*
X118000Y306000D02*
X119000D01*
X118500Y305500D02*
Y306500D01*
X112500Y304500D02*
X113500D01*
X113000Y304000D02*
Y305000D01*
X366000Y269500D02*
X367000D01*
X366500Y269000D02*
Y270000D01*
X349000Y284500D02*
X350000D01*
X349500Y284000D02*
Y285000D01*
X356750Y247917D02*
X357750D01*
X357250Y247417D02*
Y248417D01*
X359500Y250000D02*
X360500D01*
X360000Y249500D02*
Y250500D01*
X403500Y264500D02*
X404500D01*
X404000Y264000D02*
Y265000D01*
X365500Y272500D02*
X366500D01*
X366000Y272000D02*
Y273000D01*
X111500Y313000D02*
X112500D01*
X112000Y312500D02*
Y313500D01*
X138000Y351000D02*
X139000D01*
X138500Y350500D02*
Y351500D01*
X144000Y351000D02*
X145000D01*
X144500Y350500D02*
Y351500D01*
X157500Y348000D02*
X158500D01*
X158000Y347500D02*
Y348500D01*
X156500Y351000D02*
X157500D01*
X157000Y350500D02*
Y351500D01*
X365000Y302000D02*
X366000D01*
X365500Y301500D02*
Y302500D01*
X347500D02*
X348500D01*
X348000Y302000D02*
Y303000D01*
X391000Y276500D02*
X392000D01*
X391500Y276000D02*
Y277000D01*
X359500Y302000D02*
X360500D01*
X360000Y301500D02*
Y302500D01*
X366000Y283000D02*
X367000D01*
X366500Y282500D02*
Y283500D01*
X389000Y283000D02*
X390000D01*
X389500Y282500D02*
Y283500D01*
X400500Y302000D02*
X401500D01*
X401000Y301500D02*
Y302500D01*
X389000Y278500D02*
X390000D01*
X389500Y278000D02*
Y279000D01*
X124000Y292000D02*
X125000D01*
X124500Y291500D02*
Y292500D01*
X235500Y273500D02*
X236500D01*
X236000Y273000D02*
Y274000D01*
X381000Y249500D02*
X382000D01*
X381500Y249000D02*
Y250000D01*
X385000Y249500D02*
X386000D01*
X385500Y249000D02*
Y250000D01*
X376500Y249500D02*
X377500D01*
X377000Y249000D02*
Y250000D01*
X362000Y247000D02*
X363000D01*
X362500Y246500D02*
Y247500D01*
X551500Y258500D02*
X552500D01*
X552000Y258000D02*
Y259000D01*
X507750Y253917D02*
X508750D01*
X508250Y253417D02*
Y254417D01*
X378500Y264500D02*
X379500D01*
X379000Y264000D02*
Y265000D01*
X375500Y303000D02*
X376500D01*
X376000Y302500D02*
Y303500D01*
X253382Y351000D02*
X254382D01*
X253882Y350500D02*
Y351500D01*
X266374Y351000D02*
X267374D01*
X266874Y350500D02*
Y351500D01*
X244721Y351000D02*
X245721D01*
X245220Y350500D02*
Y351500D01*
X240390Y351000D02*
X241390D01*
X240890Y350500D02*
Y351500D01*
X236059Y351000D02*
X237059D01*
X236559Y350500D02*
Y351500D01*
X95500Y297500D02*
X96500D01*
X96000Y297000D02*
Y298000D01*
X82500Y286000D02*
X83500D01*
X83000Y285500D02*
Y286500D01*
X153000Y351000D02*
X154000D01*
X153500Y350500D02*
Y351500D01*
X559000Y265500D02*
X560000D01*
X559500Y265000D02*
Y266000D01*
X289500Y374500D02*
X290500D01*
X290000Y374000D02*
Y375000D01*
X262000Y333500D02*
X263000D01*
X262500Y333000D02*
Y334000D01*
X120384Y374915D02*
X121384D01*
X120884Y374415D02*
Y375415D01*
X89500Y298500D02*
X90500D01*
X90000Y298000D02*
Y299000D01*
X125500Y258000D02*
X126500D01*
X126000Y257500D02*
Y258500D01*
X163500Y268500D02*
X164500D01*
X164000Y268000D02*
Y269000D01*
X32000Y215500D02*
X33000D01*
X32500Y215000D02*
Y216000D01*
X139500Y325000D02*
X140500D01*
X140000Y324500D02*
Y325500D01*
X132000Y301000D02*
X133000D01*
X132500Y300500D02*
Y301500D01*
X50500Y201000D02*
X51500D01*
X51000Y200500D02*
Y201500D01*
X129500Y289000D02*
X130500D01*
X130000Y288500D02*
Y289500D01*
X138750Y245417D02*
X139750D01*
X139250Y244917D02*
Y245917D01*
X71279Y240417D02*
X72279D01*
X71779Y239917D02*
Y240917D01*
X93000Y317000D02*
X94000D01*
X93500Y316500D02*
Y317500D01*
X328250Y248000D02*
X329250D01*
X328750Y247500D02*
Y248500D01*
X146500Y317500D02*
X147500D01*
X147000Y317000D02*
Y318000D01*
X149000Y315000D02*
X150000D01*
X149500Y314500D02*
Y315500D01*
X144000Y320000D02*
X145000D01*
X144500Y319500D02*
Y320500D01*
X141500Y322500D02*
X142500D01*
X142000Y322000D02*
Y323000D01*
X118500Y315500D02*
X119500D01*
X119000Y315000D02*
Y316000D01*
X310000Y271500D02*
X311000D01*
X310500Y271000D02*
Y272000D01*
X314250Y216417D02*
X315250D01*
X314750Y215917D02*
Y216917D01*
X303500Y271500D02*
X304500D01*
X304000Y271000D02*
Y272000D01*
X297500Y271500D02*
X298500D01*
X298000Y271000D02*
Y272000D01*
X118500Y321029D02*
X119500D01*
X119000Y320529D02*
Y321529D01*
X291500Y271500D02*
X292500D01*
X292000Y271000D02*
Y272000D01*
X285500Y271500D02*
X286500D01*
X286000Y271000D02*
Y272000D01*
X96000Y353000D02*
X97000D01*
X96500Y352500D02*
Y353500D01*
X279500Y271500D02*
X280500D01*
X280000Y271000D02*
Y272000D01*
X273500Y271500D02*
X274500D01*
X274000Y271000D02*
Y272000D01*
X93000Y321500D02*
X94000D01*
X93500Y321000D02*
Y322000D01*
X267500Y271500D02*
X268500D01*
X268000Y271000D02*
Y272000D01*
X261500Y271500D02*
X262500D01*
X262000Y271000D02*
Y272000D01*
X379000Y206000D02*
X380000D01*
X379500Y205500D02*
Y206500D01*
X92500Y349500D02*
X93500D01*
X93000Y349000D02*
Y350000D01*
X114500Y353500D02*
X115500D01*
X115000Y353000D02*
Y354000D01*
X373500Y206000D02*
X374500D01*
X374000Y205500D02*
Y206500D01*
X92500Y353000D02*
X93500D01*
X93000Y352500D02*
Y353500D01*
X368000Y206000D02*
X369000D01*
X368500Y205500D02*
Y206500D01*
X108500Y357000D02*
X109500D01*
X109000Y356500D02*
Y357500D01*
X362500Y206000D02*
X363500D01*
X363000Y205500D02*
Y206500D01*
X106500Y355000D02*
X107500D01*
X107000Y354500D02*
Y355500D01*
X357000Y206000D02*
X358000D01*
X357500Y205500D02*
Y206500D01*
X351500Y206000D02*
X352500D01*
X352000Y205500D02*
Y206500D01*
X112500Y357000D02*
X113500D01*
X113000Y356500D02*
Y357500D01*
X346000Y206000D02*
X347000D01*
X346500Y205500D02*
Y206500D01*
X340500Y206000D02*
X341500D01*
X341000Y205500D02*
Y206500D01*
X157250Y251917D02*
X158250D01*
X157750Y251417D02*
Y252417D01*
X99500Y82500D02*
X100500D01*
X100000Y82000D02*
Y83000D01*
X99500Y87000D02*
X100500D01*
X100000Y86500D02*
Y87500D01*
X99500Y91500D02*
X100500D01*
X100000Y91000D02*
Y92000D01*
X31750Y166917D02*
X32750D01*
X32250Y166417D02*
Y167417D01*
X31750Y157917D02*
X32750D01*
X32250Y157417D02*
Y158417D01*
X36000Y152500D02*
X37000D01*
X36500Y152000D02*
Y153000D01*
X13500Y116117D02*
X14500D01*
X14000Y115617D02*
Y116617D01*
X8252Y106500D02*
X9251D01*
X8751Y106000D02*
Y107000D01*
X29000Y140500D02*
X30000D01*
X29500Y140000D02*
Y141000D01*
X25000Y138500D02*
X26000D01*
X25500Y138000D02*
Y139000D01*
X36500Y146000D02*
X37500D01*
X37000Y145500D02*
Y146500D01*
X55500Y140370D02*
X56500D01*
X56000Y139870D02*
Y140870D01*
X51500Y137000D02*
X52500D01*
X52000Y136500D02*
Y137500D01*
X38000Y94500D02*
X39000D01*
X38500Y94000D02*
Y95000D01*
X14866Y125198D02*
X15866D01*
X15366Y124698D02*
Y125698D01*
X7000Y111500D02*
X8000D01*
X7500Y111000D02*
Y112000D01*
X21750Y122917D02*
X22750D01*
X22250Y122417D02*
Y123417D01*
X66000Y143000D02*
X67000D01*
X66500Y142500D02*
Y143500D01*
X31500Y88917D02*
X33000D01*
X32250Y88167D02*
Y89667D01*
X264000Y388500D02*
X265000D01*
X264500Y388000D02*
Y389000D01*
X254500Y388500D02*
X255500D01*
X255000Y388000D02*
Y389000D01*
X245500Y388500D02*
X246500D01*
X246000Y388000D02*
Y389000D01*
X235500Y388500D02*
X236500D01*
X236000Y388000D02*
Y389000D01*
X226000Y388500D02*
X227000D01*
X226500Y388000D02*
Y389000D01*
X208000Y388500D02*
X209000D01*
X208500Y388000D02*
Y389000D01*
X199000Y388500D02*
X200000D01*
X199500Y388000D02*
Y389000D01*
X190000Y388500D02*
X191000D01*
X190500Y388000D02*
Y389000D01*
X99000Y388500D02*
X100000D01*
X99500Y388000D02*
Y389000D01*
X89500Y388500D02*
X90500D01*
X90000Y388000D02*
Y389000D01*
X80500Y388500D02*
X81500D01*
X81000Y388000D02*
Y389000D01*
X71500Y388500D02*
X72500D01*
X72000Y388000D02*
Y389000D01*
X62500Y388500D02*
X63500D01*
X63000Y388000D02*
Y389000D01*
X44000Y388500D02*
X45000D01*
X44500Y388000D02*
Y389000D01*
X35000Y388500D02*
X36000D01*
X35500Y388000D02*
Y389000D01*
X98500Y31000D02*
X99500D01*
X99000Y30500D02*
Y31500D01*
X98500Y25000D02*
X99500D01*
X99000Y24500D02*
Y25500D01*
X109500Y31000D02*
X110500D01*
X110000Y30500D02*
Y31500D01*
X109500Y25000D02*
X110500D01*
X110000Y24500D02*
Y25500D01*
X120500Y31000D02*
X121500D01*
X121000Y30500D02*
Y31500D01*
X120500Y25000D02*
X121500D01*
X121000Y24500D02*
Y25500D01*
X32500Y11000D02*
X33500D01*
X33000Y10500D02*
Y11500D01*
X43500Y11000D02*
X44500D01*
X44000Y10500D02*
Y11500D01*
X54500Y11000D02*
X55500D01*
X55000Y10500D02*
Y11500D01*
X65500Y11000D02*
X66500D01*
X66000Y10500D02*
Y11500D01*
X76500Y11000D02*
X77500D01*
X77000Y10500D02*
Y11500D01*
X87500Y11000D02*
X88500D01*
X88000Y10500D02*
Y11500D01*
X98500Y11000D02*
X99500D01*
X99000Y10500D02*
Y11500D01*
X109500Y11000D02*
X110500D01*
X110000Y10500D02*
Y11500D01*
X120500Y11000D02*
X121500D01*
X121000Y10500D02*
Y11500D01*
X32500Y19000D02*
X33500D01*
X33000Y18500D02*
Y19500D01*
X43500Y19000D02*
X44500D01*
X44000Y18500D02*
Y19500D01*
X54500Y19000D02*
X55500D01*
X55000Y18500D02*
Y19500D01*
X65500Y19000D02*
X66500D01*
X66000Y18500D02*
Y19500D01*
X76500Y19000D02*
X77500D01*
X77000Y18500D02*
Y19500D01*
X87500Y19000D02*
X88500D01*
X88000Y18500D02*
Y19500D01*
X98500Y19000D02*
X99500D01*
X99000Y18500D02*
Y19500D01*
X109500Y19000D02*
X110500D01*
X110000Y18500D02*
Y19500D01*
X120500Y19000D02*
X121500D01*
X121000Y18500D02*
Y19500D01*
X544250Y132917D02*
X545250D01*
X544750Y132417D02*
Y133417D01*
X530250Y132917D02*
X531250D01*
X530750Y132417D02*
Y133417D01*
X515750Y132917D02*
X516750D01*
X516250Y132417D02*
Y133417D01*
X499750Y132917D02*
X500750D01*
X500250Y132417D02*
Y133417D01*
X608750Y247917D02*
X609750D01*
X609250Y247417D02*
Y248417D01*
X443750Y160417D02*
X444750D01*
X444250Y159917D02*
Y160917D01*
X456250Y133417D02*
X457250D01*
X456750Y132917D02*
Y133917D01*
X440250Y133417D02*
X441250D01*
X440750Y132917D02*
Y133917D01*
X457750Y155417D02*
X458750D01*
X458250Y154917D02*
Y155917D01*
X429750Y155417D02*
X430750D01*
X430250Y154917D02*
Y155917D01*
X443750Y155417D02*
X444750D01*
X444250Y154917D02*
Y155917D01*
X223750Y34917D02*
X224750D01*
X224250Y34417D02*
Y35417D01*
X223750Y26417D02*
X224750D01*
X224250Y25917D02*
Y26917D01*
X234750Y26417D02*
X235750D01*
X235250Y25917D02*
Y26917D01*
X139750Y18917D02*
X140750D01*
X140250Y18417D02*
Y19417D01*
X149750Y18917D02*
X150750D01*
X150250Y18417D02*
Y19417D01*
X160250Y18917D02*
X161250D01*
X160750Y18417D02*
Y19417D01*
X181250Y18917D02*
X182250D01*
X181750Y18417D02*
Y19417D01*
X191750Y18917D02*
X192750D01*
X192250Y18417D02*
Y19417D01*
X202250Y18917D02*
X203250D01*
X202750Y18417D02*
Y19417D01*
X212750Y18917D02*
X213750D01*
X213250Y18417D02*
Y19417D01*
X223750Y18917D02*
X224750D01*
X224250Y18417D02*
Y19417D01*
X234750Y18917D02*
X235750D01*
X235250Y18417D02*
Y19417D01*
X246250Y18917D02*
X247250D01*
X246750Y18417D02*
Y19417D01*
X257750Y18917D02*
X258750D01*
X258250Y18417D02*
Y19417D01*
X269250Y18917D02*
X270250D01*
X269750Y18417D02*
Y19417D01*
X280750Y18917D02*
X281750D01*
X281250Y18417D02*
Y19417D01*
X292250Y18917D02*
X293250D01*
X292750Y18417D02*
Y19417D01*
X304250Y18917D02*
X305250D01*
X304750Y18417D02*
Y19417D01*
X315750Y18917D02*
X316750D01*
X316250Y18417D02*
Y19417D01*
X349250Y18917D02*
X350250D01*
X349750Y18417D02*
Y19417D01*
X361250Y18917D02*
X362250D01*
X361750Y18417D02*
Y19417D01*
X372750Y18917D02*
X373750D01*
X373250Y18417D02*
Y19417D01*
X384250Y18917D02*
X385250D01*
X384750Y18417D02*
Y19417D01*
X395250Y18917D02*
X396250D01*
X395750Y18417D02*
Y19417D01*
X406750Y18917D02*
X407750D01*
X407250Y18417D02*
Y19417D01*
X418250Y18917D02*
X419250D01*
X418750Y18417D02*
Y19417D01*
X452250Y22917D02*
X453250D01*
X452750Y22417D02*
Y23417D01*
X462750Y22917D02*
X463750D01*
X463250Y22417D02*
Y23417D01*
X473750Y22917D02*
X474750D01*
X474250Y22417D02*
Y23417D01*
X485250Y22917D02*
X486250D01*
X485750Y22417D02*
Y23417D01*
X496250Y22917D02*
X497250D01*
X496750Y22417D02*
Y23417D01*
X508250Y22917D02*
X509250D01*
X508750Y22417D02*
Y23417D01*
X520250Y22917D02*
X521250D01*
X520750Y22417D02*
Y23417D01*
X429250Y25917D02*
X430250D01*
X429750Y25417D02*
Y26417D01*
X429250Y18917D02*
X430250D01*
X429750Y18417D02*
Y19417D01*
X440250Y33417D02*
X441250D01*
X440750Y32917D02*
Y33917D01*
X440250Y25917D02*
X441250D01*
X440750Y25417D02*
Y26417D01*
X440250Y18917D02*
X441250D01*
X440750Y18417D02*
Y19417D01*
X547000Y185000D02*
X548000D01*
X547500Y184500D02*
Y185500D01*
X550000Y188000D02*
X551000D01*
X550500Y187500D02*
Y188500D01*
X544000Y182000D02*
X545000D01*
X544500Y181500D02*
Y182500D01*
X591250Y22917D02*
X592250D01*
X591750Y22417D02*
Y23417D01*
X602750Y22917D02*
X603750D01*
X603250Y22417D02*
Y23417D01*
X614250Y22917D02*
X615250D01*
X614750Y22417D02*
Y23417D01*
X625750Y22917D02*
X626750D01*
X626250Y22417D02*
Y23417D01*
X579750Y22917D02*
X580750D01*
X580250Y22417D02*
Y23417D01*
X531750Y34417D02*
X532750D01*
X532250Y33917D02*
Y34917D01*
X568250Y22917D02*
X569250D01*
X568750Y22417D02*
Y23417D01*
X556250Y22917D02*
X557250D01*
X556750Y22417D02*
Y23417D01*
X543750Y22917D02*
X544750D01*
X544250Y22417D02*
Y23417D01*
X531750Y22917D02*
X532750D01*
X532250Y22417D02*
Y23417D01*
X637250Y11917D02*
X638250D01*
X637750Y11417D02*
Y12417D01*
X625750Y11917D02*
X626750D01*
X626250Y11417D02*
Y12417D01*
X614250Y11917D02*
X615250D01*
X614750Y11417D02*
Y12417D01*
X602750Y11917D02*
X603750D01*
X603250Y11417D02*
Y12417D01*
X591250Y11917D02*
X592250D01*
X591750Y11417D02*
Y12417D01*
X579750Y11917D02*
X580750D01*
X580250Y11417D02*
Y12417D01*
X568250Y11917D02*
X569250D01*
X568750Y11417D02*
Y12417D01*
X556250Y11917D02*
X557250D01*
X556750Y11417D02*
Y12417D01*
X543750Y11917D02*
X544750D01*
X544250Y11417D02*
Y12417D01*
X531750Y11917D02*
X532750D01*
X532250Y11417D02*
Y12417D01*
X520250Y11917D02*
X521250D01*
X520750Y11417D02*
Y12417D01*
X508250Y11917D02*
X509250D01*
X508750Y11417D02*
Y12417D01*
X496250Y11917D02*
X497250D01*
X496750Y11417D02*
Y12417D01*
X485250Y11917D02*
X486250D01*
X485750Y11417D02*
Y12417D01*
X473750Y11917D02*
X474750D01*
X474250Y11417D02*
Y12417D01*
X462750Y11917D02*
X463750D01*
X463250Y11417D02*
Y12417D01*
X452250Y11917D02*
X453250D01*
X452750Y11417D02*
Y12417D01*
X440250Y11917D02*
X441250D01*
X440750Y11417D02*
Y12417D01*
X650500Y237917D02*
X652000D01*
X651250Y237167D02*
Y238667D01*
X648240Y230177D02*
X649740D01*
X648990Y229427D02*
Y230927D01*
X584250Y253417D02*
X585250D01*
X584750Y252917D02*
Y253917D01*
X597250Y230417D02*
X598250D01*
X597750Y229917D02*
Y230917D01*
X511750Y244417D02*
X512750D01*
X512250Y243917D02*
Y244917D01*
X466100Y162800D02*
X467100D01*
X466600Y162300D02*
Y163300D01*
X568500Y270417D02*
X570000D01*
X569250Y269667D02*
Y271167D01*
X597250Y266417D02*
X598250D01*
X597750Y265917D02*
Y266917D01*
X610750Y279917D02*
X611750D01*
X611250Y279417D02*
Y280417D01*
X590750Y259917D02*
X591750D01*
X591250Y259417D02*
Y260417D01*
X576250Y277917D02*
X577250D01*
X576750Y277417D02*
Y278417D01*
X603250Y272417D02*
X604250D01*
X603750Y271917D02*
Y272917D01*
X532250Y318917D02*
X533250D01*
X532750Y318417D02*
Y319417D01*
X532250Y330417D02*
X533250D01*
X532750Y329917D02*
Y330917D01*
X527250Y298417D02*
X528250D01*
X527750Y297917D02*
Y298917D01*
X549750Y387917D02*
X550750D01*
X550250Y387417D02*
Y388417D01*
X549750Y376417D02*
X550750D01*
X550250Y375917D02*
Y376917D01*
Y364917D02*
X551250D01*
X550750Y364417D02*
Y365417D01*
X550250Y353417D02*
X551250D01*
X550750Y352917D02*
Y353917D01*
X550250Y341917D02*
X551250D01*
X550750Y341417D02*
Y342417D01*
X550250Y330417D02*
X551250D01*
X550750Y329917D02*
Y330917D01*
X550250Y318917D02*
X551250D01*
X550750Y318417D02*
Y319417D01*
X550250Y307417D02*
X551250D01*
X550750Y306917D02*
Y307917D01*
X573750Y387917D02*
X574750D01*
X574250Y387417D02*
Y388417D01*
X436250Y218917D02*
X437250D01*
X436750Y218417D02*
Y219417D01*
X573750Y376417D02*
X574750D01*
X574250Y375917D02*
Y376917D01*
X443750Y218917D02*
X444750D01*
X444250Y218417D02*
Y219417D01*
X573750Y364917D02*
X574750D01*
X574250Y364417D02*
Y365417D01*
X451250Y218917D02*
X452250D01*
X451750Y218417D02*
Y219417D01*
X573250Y353417D02*
X574250D01*
X573750Y352917D02*
Y353917D01*
X458750Y218917D02*
X459750D01*
X459250Y218417D02*
Y219417D01*
X573250Y341917D02*
X574250D01*
X573750Y341417D02*
Y342417D01*
X465750Y218917D02*
X466750D01*
X466250Y218417D02*
Y219417D01*
X573250Y330417D02*
X574250D01*
X573750Y329917D02*
Y330917D01*
X473750Y218917D02*
X474750D01*
X474250Y218417D02*
Y219417D01*
X480750Y218956D02*
X481750D01*
X481250Y218457D02*
Y219457D01*
X573250Y318917D02*
X574250D01*
X573750Y318417D02*
Y319417D01*
X573250Y307417D02*
X574250D01*
X573750Y306917D02*
Y307917D01*
X493750Y212917D02*
X494750D01*
X494250Y212417D02*
Y213417D01*
X460750Y199667D02*
X461750D01*
X461250Y199167D02*
Y200167D01*
X448500Y83417D02*
X450000D01*
X449250Y82667D02*
Y84167D01*
X450500Y154917D02*
X452000D01*
X451250Y154167D02*
Y155667D01*
X464500Y154917D02*
X466000D01*
X465250Y154167D02*
Y155667D01*
X461500Y83417D02*
X463000D01*
X462250Y82667D02*
Y84167D01*
X517500Y157417D02*
X519000D01*
X518250Y156667D02*
Y158167D01*
X524000Y157417D02*
X525500D01*
X524750Y156667D02*
Y158167D01*
X475500Y82917D02*
X477000D01*
X476250Y82167D02*
Y83667D01*
X478500Y154917D02*
X480000D01*
X479250Y154167D02*
Y155667D01*
X492500Y160917D02*
X494000D01*
X493250Y160167D02*
Y161667D01*
X492500Y88917D02*
X494000D01*
X493250Y88167D02*
Y89667D01*
X507000Y84917D02*
X508500D01*
X507750Y84167D02*
Y85667D01*
X534500Y154917D02*
X536000D01*
X535250Y154167D02*
Y155667D01*
X536000Y84917D02*
X537500D01*
X536750Y84167D02*
Y85667D01*
X521500Y88917D02*
X523000D01*
X522250Y88167D02*
Y89667D01*
X541500Y88917D02*
X543000D01*
X542250Y88167D02*
Y89667D01*
X552000Y83417D02*
X553500D01*
X552750Y82667D02*
Y84167D01*
X548500Y154917D02*
X550000D01*
X549250Y154167D02*
Y155667D01*
X530811Y88417D02*
X532311D01*
X531561Y87667D02*
Y89167D01*
X502000Y88417D02*
X503500D01*
X502750Y87667D02*
Y89167D01*
X473240Y88442D02*
X474740D01*
X473990Y87692D02*
Y89192D01*
X445000Y88917D02*
X446500D01*
X445750Y88167D02*
Y89667D01*
X513000Y88917D02*
X514500D01*
X513750Y88167D02*
Y89667D01*
X484500Y88917D02*
X486000D01*
X485250Y88167D02*
Y89667D01*
X456000Y88917D02*
X457500D01*
X456750Y88167D02*
Y89667D01*
X322250Y233917D02*
X323250D01*
X322750Y233417D02*
Y234417D01*
X316250Y233917D02*
X317250D01*
X316750Y233417D02*
Y234417D01*
X429250Y11917D02*
X430250D01*
X429750Y11417D02*
Y12417D01*
X418250Y11917D02*
X419250D01*
X418750Y11417D02*
Y12417D01*
X406750Y11917D02*
X407750D01*
X407250Y11417D02*
Y12417D01*
X395250Y11417D02*
X396250D01*
X395750Y10917D02*
Y11917D01*
X384250Y11417D02*
X385250D01*
X384750Y10917D02*
Y11917D01*
X372750Y11417D02*
X373750D01*
X373250Y10917D02*
Y11917D01*
X361250Y11417D02*
X362250D01*
X361750Y10917D02*
Y11917D01*
X349250Y11417D02*
X350250D01*
X349750Y10917D02*
Y11917D01*
X315750Y11417D02*
X316750D01*
X316250Y10917D02*
Y11917D01*
X304250Y11417D02*
X305250D01*
X304750Y10917D02*
Y11917D01*
X292250Y11417D02*
X293250D01*
X292750Y10917D02*
Y11917D01*
X280750Y11417D02*
X281750D01*
X281250Y10917D02*
Y11917D01*
X269250Y11417D02*
X270250D01*
X269750Y10917D02*
Y11917D01*
X257750Y11417D02*
X258750D01*
X258250Y10917D02*
Y11917D01*
X246250Y11417D02*
X247250D01*
X246750Y10917D02*
Y11917D01*
X234750Y11417D02*
X235750D01*
X235250Y10917D02*
Y11917D01*
X223750Y11417D02*
X224750D01*
X224250Y10917D02*
Y11917D01*
X212750Y11417D02*
X213750D01*
X213250Y10917D02*
Y11917D01*
X202250Y11417D02*
X203250D01*
X202750Y10917D02*
Y11917D01*
X191750Y11417D02*
X192750D01*
X192250Y10917D02*
Y11917D01*
X181250Y11417D02*
X182250D01*
X181750Y10917D02*
Y11917D01*
X160250Y11417D02*
X161250D01*
X160750Y10917D02*
Y11917D01*
X149750Y11417D02*
X150750D01*
X150250Y10917D02*
Y11917D01*
X139750Y11417D02*
X140750D01*
X140250Y10917D02*
Y11917D01*
X80700Y69800D02*
X81700D01*
X81200Y69300D02*
Y70300D01*
X80000Y54500D02*
X81000D01*
X80500Y54000D02*
Y55000D01*
X41500Y52800D02*
X42500D01*
X42000Y52300D02*
Y53300D01*
X120500Y37000D02*
X121500D01*
X121000Y36500D02*
Y37500D01*
X120500Y42500D02*
X121500D01*
X121000Y42000D02*
Y43000D01*
X66250Y166917D02*
X67250D01*
X66750Y166417D02*
Y167417D01*
X6750Y136417D02*
X7750D01*
X7250Y135917D02*
Y136917D01*
Y165417D02*
X8250D01*
X7750Y164917D02*
Y165917D01*
X7250Y158417D02*
X8250D01*
X7750Y157917D02*
Y158917D01*
X40000Y154000D02*
X41000D01*
X40500Y153500D02*
Y154500D01*
X6750Y142417D02*
X7750D01*
X7250Y141917D02*
Y142917D01*
X66250Y172917D02*
X67250D01*
X66750Y172417D02*
Y173417D01*
X7250Y172917D02*
X8250D01*
X7750Y172417D02*
Y173417D01*
X4750Y88917D02*
X5750D01*
X5250Y88417D02*
Y89417D01*
X41500Y48700D02*
X42500D01*
X42000Y48200D02*
Y49200D01*
X120500Y48500D02*
X121500D01*
X121000Y48000D02*
Y49000D01*
X322250Y247917D02*
X323250D01*
X322750Y247417D02*
Y248417D01*
X316250Y247917D02*
X317250D01*
X316750Y247417D02*
Y248417D01*
X303750Y247917D02*
X304750D01*
X304250Y247417D02*
Y248417D01*
X310250Y247917D02*
X311250D01*
X310750Y247417D02*
Y248417D01*
X279750Y247917D02*
X280750D01*
X280250Y247417D02*
Y248417D01*
X273750Y247917D02*
X274750D01*
X274250Y247417D02*
Y248417D01*
X285750Y247917D02*
X286750D01*
X286250Y247417D02*
Y248417D01*
X297750Y247917D02*
X298750D01*
X298250Y247417D02*
Y248417D01*
X267750Y247917D02*
X268750D01*
X268250Y247417D02*
Y248417D01*
X291750Y247917D02*
X292750D01*
X292250Y247417D02*
Y248417D01*
X637789Y387917D02*
X638789D01*
X638289Y387417D02*
Y388417D01*
X160250Y222917D02*
X161250D01*
X160750Y222417D02*
Y223417D01*
X206250Y223917D02*
X207250D01*
X206750Y223417D02*
Y224417D01*
X38750Y236917D02*
X39750D01*
X39250Y236417D02*
Y237417D01*
X38750Y244917D02*
X39750D01*
X39250Y244417D02*
Y245417D01*
X59750Y236917D02*
X60750D01*
X60250Y236417D02*
Y237417D01*
X59750Y242917D02*
X60750D01*
X60250Y242417D02*
Y243417D01*
X59750Y248917D02*
X60750D01*
X60250Y248417D02*
Y249417D01*
X59750Y254917D02*
X60750D01*
X60250Y254417D02*
Y255417D01*
X589750Y291417D02*
X590750D01*
X590250Y290917D02*
Y291917D01*
X583250Y284917D02*
X584250D01*
X583750Y284417D02*
Y285417D01*
X536250Y237917D02*
X537250D01*
X536750Y237417D02*
Y238417D01*
X529250Y230917D02*
X530250D01*
X529750Y230417D02*
Y231417D01*
X523250Y224917D02*
X524250D01*
X523750Y224417D02*
Y225417D01*
X517250Y218917D02*
X518250D01*
X517750Y218417D02*
Y219417D01*
X511250Y212917D02*
X512250D01*
X511750Y212417D02*
Y213417D01*
X505250Y206917D02*
X506250D01*
X505750Y206417D02*
Y207417D01*
X498750Y200417D02*
X499750D01*
X499250Y199917D02*
Y200917D01*
X492750Y194417D02*
X493750D01*
X493250Y193917D02*
Y194917D01*
X553250Y222417D02*
X554250D01*
X553750Y221917D02*
Y222917D01*
X547750Y216917D02*
X548750D01*
X548250Y216417D02*
Y217417D01*
X540750Y209917D02*
X541750D01*
X541250Y209417D02*
Y210417D01*
X524750Y193917D02*
X525750D01*
X525250Y193417D02*
Y194417D01*
X519750Y188917D02*
X520750D01*
X520250Y188417D02*
Y189417D01*
X513750Y182917D02*
X514750D01*
X514250Y182417D02*
Y183417D01*
X329900Y144100D02*
X330900D01*
X330400Y143600D02*
Y144600D01*
X343250Y132917D02*
X344250D01*
X343750Y132417D02*
Y133417D01*
X356750Y132917D02*
X357750D01*
X357250Y132417D02*
Y133417D01*
X371250Y132917D02*
X372250D01*
X371750Y132417D02*
Y133417D01*
X384750Y132917D02*
X385750D01*
X385250Y132417D02*
Y133417D01*
X399250Y132917D02*
X400250D01*
X399750Y132417D02*
Y133417D01*
X413750Y132917D02*
X414750D01*
X414250Y132417D02*
Y133417D01*
X428750Y132917D02*
X429750D01*
X429250Y132417D02*
Y133417D01*
X211750Y78417D02*
X212750D01*
X212250Y77917D02*
Y78917D01*
X206750Y48500D02*
X207750D01*
X207250Y48000D02*
Y49000D01*
X185600Y48500D02*
X186600D01*
X186100Y48000D02*
Y49000D01*
X168200Y48500D02*
X169200D01*
X168700Y48000D02*
Y49000D01*
X133250Y7917D02*
X134250D01*
X133750Y7417D02*
Y8417D01*
X133250Y17917D02*
X134250D01*
X133750Y17417D02*
Y18417D01*
X133250Y22917D02*
X134250D01*
X133750Y22417D02*
Y23417D01*
X133250Y27917D02*
X134250D01*
X133750Y27417D02*
Y28417D01*
X133250Y33417D02*
X134250D01*
X133750Y32917D02*
Y33917D01*
X133250Y38417D02*
X134250D01*
X133750Y37917D02*
Y38917D01*
X133250Y43417D02*
X134250D01*
X133750Y42917D02*
Y43917D01*
X133250Y48417D02*
X134250D01*
X133750Y47917D02*
Y48917D01*
X133250Y54417D02*
X134250D01*
X133750Y53917D02*
Y54917D01*
X109250Y117917D02*
X110250D01*
X109750Y117417D02*
Y118417D01*
Y92417D02*
X110750D01*
X110250Y91917D02*
Y92917D01*
X109750Y86917D02*
X110750D01*
X110250Y86417D02*
Y87417D01*
X114250Y81917D02*
X115250D01*
X114750Y81417D02*
Y82417D01*
X117750Y78417D02*
X118750D01*
X118250Y77917D02*
Y78917D01*
X128250Y67917D02*
X129250D01*
X128750Y67417D02*
Y68417D01*
X133250Y62417D02*
X134250D01*
X133750Y61917D02*
Y62917D01*
X281250Y72417D02*
X282250D01*
X281750Y71917D02*
Y72917D01*
X245000Y94700D02*
X246000D01*
X245500Y94200D02*
Y95200D01*
X117250Y153917D02*
X118250D01*
X117750Y153417D02*
Y154417D01*
X117250Y158917D02*
X118250D01*
X117750Y158417D02*
Y159417D01*
X162750Y152417D02*
X163750D01*
X163250Y151917D02*
Y152917D01*
X162750Y157917D02*
X163750D01*
X163250Y157417D02*
Y158417D01*
X237250Y127417D02*
X238250D01*
X237750Y126917D02*
Y127917D01*
X247250Y122417D02*
X248250D01*
X247750Y121917D02*
Y122917D01*
X116300Y127417D02*
X117300D01*
X116800Y126917D02*
Y127917D01*
X94750Y151878D02*
X95750D01*
X95250Y151378D02*
Y152378D01*
X140250Y151878D02*
X141250D01*
X140750Y151378D02*
Y152378D01*
X185800Y152200D02*
X186800D01*
X186300Y151700D02*
Y152700D01*
X231250Y153917D02*
X232250D01*
X231750Y153417D02*
Y154417D01*
X149750Y127417D02*
X150750D01*
X150250Y126917D02*
Y127917D01*
X141250Y127417D02*
X142250D01*
X141750Y126917D02*
Y127917D01*
X161000Y127417D02*
X162000D01*
X161500Y126917D02*
Y127917D01*
X206250Y127417D02*
X207250D01*
X206750Y126917D02*
Y127917D01*
X189750Y127417D02*
X190750D01*
X190250Y126917D02*
Y127917D01*
X292250Y133917D02*
X293250D01*
X292750Y133417D02*
Y134417D01*
X269750Y130417D02*
X270750D01*
X270250Y129917D02*
Y130917D01*
X260250Y131417D02*
X261250D01*
X260750Y130917D02*
Y131917D01*
X356750Y199417D02*
X357750D01*
X357250Y198917D02*
Y199917D01*
X334000Y206000D02*
X335000D01*
X334500Y205500D02*
Y206500D01*
X254000Y205000D02*
X255000D01*
X254500Y204500D02*
Y205500D01*
X254750Y159917D02*
X255750D01*
X255250Y159417D02*
Y160417D01*
X21750Y164917D02*
X22750D01*
X22250Y164417D02*
Y165417D01*
X14250Y166917D02*
X15250D01*
X14750Y166417D02*
Y167417D01*
X46750Y158917D02*
X47750D01*
X47250Y158417D02*
Y159417D01*
X51750Y158917D02*
X52750D01*
X52250Y158417D02*
Y159417D01*
X117250Y193917D02*
X118250D01*
X117750Y193417D02*
Y194417D01*
X162750Y193917D02*
X163750D01*
X163250Y193417D02*
Y194417D01*
X208250Y193917D02*
X209250D01*
X208750Y193417D02*
Y194417D01*
X117250Y171917D02*
X118250D01*
X117750Y171417D02*
Y172417D01*
X162750Y171917D02*
X163750D01*
X163250Y171417D02*
Y172417D01*
X208250Y171917D02*
X209250D01*
X208750Y171417D02*
Y172417D01*
X82250Y116917D02*
X83250D01*
X82750Y116417D02*
Y117417D01*
X46750Y123417D02*
X47750D01*
X47250Y122917D02*
Y123917D01*
X61750Y103417D02*
X62750D01*
X62250Y102917D02*
Y103917D01*
X70250Y121917D02*
X71250D01*
X70750Y121417D02*
Y122417D01*
X51250Y104917D02*
X52250D01*
X51750Y104417D02*
Y105417D01*
X31750Y122417D02*
X32750D01*
X32250Y121917D02*
Y122917D01*
X85000Y91917D02*
X86500D01*
X85750Y91167D02*
Y92667D01*
X28250Y104917D02*
X29250D01*
X28750Y104417D02*
Y105417D01*
X33750Y108417D02*
X34750D01*
X34250Y107917D02*
Y108917D01*
X26750Y122917D02*
X27750D01*
X27250Y122417D02*
Y123417D01*
X69750Y93417D02*
X70750D01*
X70250Y92917D02*
Y93917D01*
X54750Y109417D02*
X55750D01*
X55250Y108917D02*
Y109917D01*
X63750Y108417D02*
X64750D01*
X64250Y107917D02*
Y108917D01*
X66750Y126417D02*
X67750D01*
X67250Y125917D02*
Y126917D01*
X61750Y126417D02*
X62750D01*
X62250Y125917D02*
Y126917D01*
X41250Y122417D02*
X42250D01*
X41750Y121917D02*
Y122917D01*
X11250Y149417D02*
X12250D01*
X11750Y148917D02*
Y149917D01*
X26750Y157917D02*
X27750D01*
X27250Y157417D02*
Y158417D01*
X56750Y159417D02*
X57750D01*
X57250Y158917D02*
Y159917D01*
X61500Y162417D02*
X63000D01*
X62250Y161667D02*
Y163167D01*
X330850Y183917D02*
X333650D01*
X332250Y182517D02*
Y185317D01*
X436500Y154917D02*
X438000D01*
X437250Y154167D02*
Y155667D01*
X263250Y168417D02*
X264250D01*
X263750Y167917D02*
Y168917D01*
X94750Y159417D02*
X95750D01*
X95250Y158917D02*
Y159917D01*
X104250Y159417D02*
X105250D01*
X104750Y158917D02*
Y159917D01*
X89750Y159417D02*
X90750D01*
X90250Y158917D02*
Y159917D01*
X78250Y158917D02*
X79250D01*
X78750Y158417D02*
Y159417D01*
X111750Y153917D02*
X112750D01*
X112250Y153417D02*
Y154417D01*
X140750Y159417D02*
X141750D01*
X141250Y158917D02*
Y159917D01*
X83750Y158917D02*
X84750D01*
X84250Y158417D02*
Y159417D01*
X84750Y129917D02*
X85750D01*
X85250Y129417D02*
Y130417D01*
X117250Y141917D02*
X118250D01*
X117750Y141417D02*
Y142417D01*
X116750Y146917D02*
X117750D01*
X117250Y146417D02*
Y147417D01*
X116750Y136917D02*
X117750D01*
X117250Y136417D02*
Y137417D01*
X79750Y130917D02*
X80750D01*
X80250Y130417D02*
Y131417D01*
X149750Y159917D02*
X150750D01*
X150250Y159417D02*
Y160417D01*
X135250Y159917D02*
X136250D01*
X135750Y159417D02*
Y160417D01*
X129250Y159417D02*
X130250D01*
X129750Y158917D02*
Y159917D01*
X136250Y127917D02*
X137250D01*
X136750Y127417D02*
Y128417D01*
X124750Y129917D02*
X125750D01*
X125250Y129417D02*
Y130417D01*
X157250Y153917D02*
X158250D01*
X157750Y153417D02*
Y154417D01*
X161750Y141917D02*
X162750D01*
X162250Y141417D02*
Y142417D01*
X161750Y136917D02*
X162750D01*
X162250Y136417D02*
Y137417D01*
X122750Y158917D02*
X123750D01*
X123250Y158417D02*
Y159417D01*
X195250Y159917D02*
X196250D01*
X195750Y159417D02*
Y160417D01*
X185750Y159917D02*
X186750D01*
X186250Y159417D02*
Y160417D01*
X180750Y159917D02*
X181750D01*
X181250Y159417D02*
Y160417D01*
X202250Y153917D02*
X203250D01*
X202750Y153417D02*
Y154417D01*
X207750Y141917D02*
X208750D01*
X208250Y141417D02*
Y142417D01*
X174750Y158417D02*
X175750D01*
X175250Y157917D02*
Y158917D01*
X182750Y127417D02*
X183750D01*
X183250Y126917D02*
Y127917D01*
X170750Y129917D02*
X171750D01*
X171250Y129417D02*
Y130417D01*
X168750Y158417D02*
X169750D01*
X169250Y157917D02*
Y158917D01*
X207750Y136917D02*
X208750D01*
X208250Y136417D02*
Y137417D01*
X226250Y159917D02*
X227250D01*
X226750Y159417D02*
Y160417D01*
X220250D02*
X221250D01*
X220750Y159917D02*
Y160917D01*
X227250Y127417D02*
X228250D01*
X227750Y126917D02*
Y127917D01*
X221470Y136417D02*
X222470D01*
X221971Y135917D02*
Y136917D01*
X216250Y129917D02*
X217250D01*
X216750Y129417D02*
Y130417D01*
X214750Y158417D02*
X215750D01*
X215250Y157917D02*
Y158917D01*
X253250Y141417D02*
X254250D01*
X253750Y140917D02*
Y141917D01*
X253250Y136417D02*
X254250D01*
X253750Y135917D02*
Y136917D01*
X221250Y141417D02*
X222250D01*
X221750Y140917D02*
Y141917D01*
X110750Y128417D02*
X111750D01*
X111250Y127917D02*
Y128917D01*
X155750Y128417D02*
X156750D01*
X156250Y127917D02*
Y128917D01*
X201750Y128417D02*
X202750D01*
X202250Y127917D02*
Y128917D01*
X247250Y127917D02*
X248250D01*
X247750Y127417D02*
Y128417D01*
X85250Y141917D02*
X86250D01*
X85750Y141417D02*
Y142417D01*
X130250Y141917D02*
X131250D01*
X130750Y141417D02*
Y142417D01*
X161250Y146917D02*
X162250D01*
X161750Y146417D02*
Y147417D01*
X176250Y141917D02*
X177250D01*
X176750Y141417D02*
Y142417D01*
X207750Y146917D02*
X208750D01*
X208250Y146417D02*
Y147417D01*
X216750Y78417D02*
X217750D01*
X217250Y77917D02*
Y78917D01*
X154750Y77917D02*
X155750D01*
X155250Y77417D02*
Y78417D01*
X636250Y307417D02*
X637250D01*
X636750Y306917D02*
Y307917D01*
X636250Y318917D02*
X637250D01*
X636750Y318417D02*
Y319417D01*
X305750Y93917D02*
X306750D01*
X306250Y93417D02*
Y94417D01*
X636250Y330417D02*
X637250D01*
X636750Y329917D02*
Y330917D01*
X292250Y80917D02*
X293250D01*
X292750Y80417D02*
Y81417D01*
X286125Y93042D02*
X287125D01*
X286625Y92542D02*
Y93542D01*
X635750Y341917D02*
X636750D01*
X636250Y341417D02*
Y342417D01*
X288000Y139417D02*
X289500D01*
X288750Y138667D02*
Y140167D01*
X636250Y353417D02*
X637250D01*
X636750Y352917D02*
Y353917D01*
X271750Y80917D02*
X272750D01*
X272250Y80417D02*
Y81417D01*
X636250Y364917D02*
X637250D01*
X636750Y364417D02*
Y365417D01*
X264250Y73917D02*
X265250D01*
X264750Y73417D02*
Y74417D01*
X635750Y376417D02*
X636750D01*
X636250Y375917D02*
Y376917D01*
X253250Y77417D02*
X254250D01*
X253750Y76917D02*
Y77917D01*
X278500Y84917D02*
X280000D01*
X279250Y84167D02*
Y85667D01*
X300000Y133917D02*
X301500D01*
X300750Y133167D02*
Y134667D01*
X305500Y136417D02*
X307000D01*
X306250Y135667D02*
Y137167D01*
X311500Y138417D02*
X313000D01*
X312250Y137667D02*
Y139167D01*
X317500Y140417D02*
X319000D01*
X318250Y139667D02*
Y141167D01*
X434000Y83417D02*
X435500D01*
X434750Y82667D02*
Y84167D01*
X352500Y155917D02*
X354000D01*
X353250Y155167D02*
Y156667D01*
X422500Y154917D02*
X424000D01*
X423250Y154167D02*
Y155667D01*
X420000Y83417D02*
X421500D01*
X420750Y82667D02*
Y84167D01*
X408500Y155417D02*
X410000D01*
X409250Y154667D02*
Y156167D01*
X406000Y83417D02*
X407500D01*
X406750Y82667D02*
Y84167D01*
X399000Y88917D02*
X400500D01*
X399750Y88167D02*
Y89667D01*
X392000Y83417D02*
X393500D01*
X392750Y82667D02*
Y84167D01*
X378000Y83417D02*
X379500D01*
X378750Y82667D02*
Y84167D01*
X364500Y82917D02*
X366000D01*
X365250Y82167D02*
Y83667D01*
X366500Y155417D02*
X368000D01*
X367250Y154667D02*
Y156167D01*
X350000Y83417D02*
X351500D01*
X350750Y82667D02*
Y84167D01*
X336500Y83417D02*
X338000D01*
X337250Y82667D02*
Y84167D01*
X416500Y88917D02*
X418000D01*
X417250Y88167D02*
Y89667D01*
X388000Y88417D02*
X389500D01*
X388750Y87667D02*
Y89167D01*
X359500Y88417D02*
X361000D01*
X360250Y87667D02*
Y89167D01*
X331000Y88417D02*
X332500D01*
X331750Y87667D02*
Y89167D01*
X427500Y88417D02*
X429000D01*
X428250Y87667D02*
Y89167D01*
X370500Y88917D02*
X372000D01*
X371250Y88167D02*
Y89667D01*
X342000Y88917D02*
X343500D01*
X342750Y88167D02*
Y89667D01*
X315500Y85917D02*
X317000D01*
X316250Y85167D02*
Y86667D01*
X260000Y86417D02*
X261500D01*
X260750Y85667D02*
Y87167D01*
X378750Y225917D02*
X379750D01*
X379250Y225417D02*
Y226417D01*
X373250Y231917D02*
X374250D01*
X373750Y231417D02*
Y232417D01*
X340250Y263917D02*
X341250D01*
X340750Y263417D02*
Y264417D01*
X367750Y237417D02*
X368750D01*
X368250Y236917D02*
Y237917D01*
X362250Y242917D02*
X363250D01*
X362750Y242417D02*
Y243417D01*
X345750Y258917D02*
X346750D01*
X346250Y258417D02*
Y259417D01*
X379250Y191917D02*
X380250D01*
X379750Y191417D02*
Y192417D01*
X26750Y215417D02*
X27750D01*
X27250Y214917D02*
Y215917D01*
X116750Y240417D02*
X117750D01*
X117250Y239917D02*
Y240917D01*
X310250Y224917D02*
X311250D01*
X310750Y224417D02*
Y225417D01*
X303750Y224917D02*
X304750D01*
X304250Y224417D02*
Y225417D01*
X297750Y224917D02*
X298750D01*
X298250Y224417D02*
Y225417D01*
X291750Y224917D02*
X292750D01*
X292250Y224417D02*
Y225417D01*
X285750Y224917D02*
X286750D01*
X286250Y224417D02*
Y225417D01*
X279750Y224917D02*
X280750D01*
X280250Y224417D02*
Y225417D01*
X273750Y224917D02*
X274750D01*
X274250Y224417D02*
Y225417D01*
X267750Y224917D02*
X268750D01*
X268250Y224417D02*
Y225417D01*
X243250Y235417D02*
X244250D01*
X243750Y234917D02*
Y235917D01*
X197750Y235417D02*
X198750D01*
X198250Y234917D02*
Y235917D01*
X153250Y235417D02*
X154250D01*
X153750Y234917D02*
Y235917D01*
X107250Y235417D02*
X108250D01*
X107750Y234917D02*
Y235917D01*
X183750Y245417D02*
X184750D01*
X184250Y244917D02*
Y245917D01*
X62435Y207102D02*
X63435D01*
X62935Y206602D02*
Y207602D01*
X37703Y212870D02*
X38703D01*
X38203Y212370D02*
Y213370D01*
M02*
